<svg width="1321" height="124" viewBox="0 0 1321 124" fill="none" xmlns="http://www.w3.org/2000/svg">
<mask id="path-1-outside-1_46_57" maskUnits="userSpaceOnUse" x="4" y="47" width="1315" height="55" fill="black">
<rect fill="white" x="4" y="47" width="1315" height="55"/>
<path d="M27.78 98.9H27.9L27 101.12H4.8V59.18H7.74V100.82H9.12C12.6 100.82 21.78 99.86 27.78 98.9ZM48.5077 56.36L48.0877 56.66L38.7877 47.78H44.2477L48.5077 56.36ZM62.9677 65.36C71.2477 73.7 71.2477 87.2 62.9077 95.54C54.6277 103.88 41.0677 103.88 32.7877 95.54C24.4477 87.26 24.4477 73.7 32.7877 65.42C41.1277 57.08 54.6277 57.08 62.9677 65.36ZM62.6677 95.3C69.7477 88.16 68.6077 75.98 60.4477 67.82C52.2877 59.66 40.1677 58.58 33.0277 65.66C25.9477 72.8 27.0277 84.92 35.1877 93.08C43.3477 101.24 55.5277 102.38 62.6677 95.3ZM79.6931 101.12H76.7531V59.18H79.6931V101.12ZM134.571 58.82H135.351V101.78H134.991L108.591 63.08V101H107.991V62.06L106.191 59.3V59.18H109.671L134.571 95.96V58.82ZM171.475 59.18H174.475V101.12H171.475V79.76H147.955V101.12H145.015V59.18H147.955V78.74H171.475V59.18ZM206.415 47.78L197.175 56.66L196.755 56.36L201.015 47.78H206.415ZM197.235 58.46L213.795 101.12H210.555L205.215 87.2H187.155C184.635 93.98 187.155 87.2 181.575 101.12H180.375C182.775 95.36 185.175 88.94 187.575 82.88L196.995 58.46H197.235ZM187.275 86.66H204.975L196.155 63.86L188.655 83.18L187.275 86.66ZM246.016 58.82H246.796V101.78H246.436L220.036 63.08V101H219.436V62.06L217.636 59.3V59.18H221.116L246.016 95.96V58.82ZM307.08 81.92L310.08 81.62V101H307.08V97.22C298.74 103.76 286.62 103.16 278.94 95.48C270.6 87.14 270.6 73.64 278.94 65.3C287.28 56.96 300.78 56.96 309.12 65.3C309.36 65.54 309.6 65.78 309.78 66.02L307.26 68.42C307.08 68.18 306.84 67.94 306.6 67.7C298.44 59.54 286.32 58.46 279.18 65.6C272.1 72.68 273.18 84.8 281.34 92.96C288.9 100.52 299.88 102.08 307.08 96.62V81.92ZM345.512 59.06H346.292V87.14C346.292 96.56 341.612 101.78 332.192 101.78C322.892 101.78 318.032 96.74 318.032 87.44V59.18H320.972V87.14C320.972 95.72 325.052 100.28 333.092 100.28C340.712 100.28 345.512 95.78 345.512 87.26V59.06ZM358.482 101.12H355.542V59.18H358.482V101.12ZM421.46 93.98L421.76 94.28C421.46 94.64 421.1 95 420.74 95.36C412.46 103.7 398.9 103.7 390.62 95.36C382.28 87.02 382.28 73.52 390.62 65.18C398.96 56.84 412.46 56.84 420.8 65.18C421.04 65.42 421.28 65.66 421.46 65.9L418.94 68.3C418.76 68.06 418.52 67.82 418.28 67.58C410.12 59.42 398 58.34 390.86 65.48C383.78 72.56 384.86 84.68 393.02 92.84C401.18 101.06 413.36 102.2 420.5 95.06C420.8 94.7 421.16 94.34 421.46 93.98ZM455.141 59.06H455.921V87.14C455.921 96.56 451.241 101.78 441.821 101.78C432.521 101.78 427.661 96.74 427.661 87.44V59.18H430.601V87.14C430.601 95.72 434.681 100.28 442.721 100.28C450.341 100.28 455.141 95.78 455.141 87.26V59.06ZM476.61 58.46L493.17 101.12H489.93L484.59 87.14H466.53C464.01 93.98 466.53 87.14 460.95 101.12H459.75C462.15 95.36 464.55 88.94 466.95 82.82L476.37 58.46H476.61ZM466.65 86.66H484.35L475.53 63.8L468.03 83.18L466.65 86.66ZM534.717 79.1C540.957 79.58 546.237 83.66 546.237 89.66C546.237 96.68 540.057 101.12 528.957 101.12H517.437V59.18H529.497C539.157 59.18 543.477 63.26 543.477 69.26C543.477 74.6 538.977 77.96 534.717 78.98V79.1ZM520.377 59.54V79.04H530.037C536.457 79.04 540.237 74.9 540.237 69.56C540.237 64.4 536.637 59.54 529.017 59.54H520.377ZM528.297 100.58C538.377 100.58 542.877 96.56 542.877 90.38C542.877 84.14 538.377 79.94 531.177 79.94H520.377V100.16C521.757 100.46 526.437 100.58 528.297 100.58ZM566.61 58.46L583.17 101.12H579.93L574.59 87.14H556.53C554.01 93.98 556.53 87.14 550.95 101.12H549.75C552.15 95.36 554.55 88.94 556.95 82.82L566.37 58.46H566.61ZM556.65 86.66H574.35L565.53 63.8L558.03 83.18L556.65 86.66ZM615.391 58.82H616.171V101.78H615.811L589.411 63.08V101H588.811V62.06L587.011 59.3V59.18H590.491L615.391 95.96V58.82ZM657.975 59.18C670.815 59.18 678.975 66.5 678.975 79.64C678.975 93.2 670.455 101.12 657.615 101.12H644.175V59.18H657.975ZM657.915 100.64C668.835 100.64 675.615 92.84 675.615 79.94C675.615 68.06 668.175 59.66 657.375 59.66H647.115V99.68C648.975 100.04 652.575 100.64 657.915 100.64ZM698.829 56.36L698.469 56.66L689.169 47.78H694.569L698.829 56.36ZM697.509 58.46L714.069 101.12H710.829L705.489 87.2H687.429C684.909 93.98 687.429 87.2 681.849 101.12H680.649C683.049 95.36 685.449 88.94 687.849 82.88L697.269 58.46H697.509ZM687.549 86.66H705.249L696.429 63.86L688.929 83.18L687.549 86.66ZM746.289 58.82H747.069V101.78H746.709L720.309 63.08V101H719.709V62.06L717.909 59.3V59.18H721.389L746.289 95.96V58.82ZM783.194 59.18H786.194V101.12H783.194V79.76H759.674V101.12H756.734V59.18H759.674V78.74H783.194V59.18ZM849.194 93.98L849.494 94.28C849.194 94.64 848.834 95 848.474 95.36C840.194 103.7 826.634 103.7 818.354 95.36C810.014 87.02 810.014 73.52 818.354 65.18C826.694 56.84 840.194 56.84 848.534 65.18C848.774 65.42 849.014 65.66 849.194 65.9L846.674 68.3C846.494 68.06 846.254 67.82 846.014 67.58C837.854 59.42 825.734 58.34 818.594 65.48C811.514 72.56 812.594 84.68 820.754 92.84C828.914 101.06 841.094 102.2 848.234 95.06C848.534 94.7 848.894 94.34 849.194 93.98ZM882.627 59.18H885.627V101.12H882.627V79.76H859.107V101.12H856.167V59.18H859.107V78.74H882.627V59.18ZM929.628 64.82C937.908 73.16 937.908 86.66 929.568 95C921.288 103.34 907.728 103.34 899.448 95C891.108 86.66 891.108 73.16 899.448 64.82C907.788 56.48 921.288 56.48 929.628 64.82ZM929.328 94.7C936.408 87.62 935.268 75.44 927.108 67.22C918.948 59.06 906.828 57.98 899.688 65.12C892.608 72.26 893.688 84.38 901.848 92.54C910.008 100.7 922.188 101.84 929.328 94.7ZM996.733 93.98L997.033 94.28C996.733 94.64 996.373 95 996.013 95.36C987.733 103.7 974.173 103.7 965.893 95.36C957.553 87.02 957.553 73.52 965.893 65.18C974.233 56.84 987.733 56.84 996.073 65.18C996.313 65.42 996.553 65.66 996.733 65.9L994.213 68.3C994.033 68.06 993.793 67.82 993.553 67.58C985.393 59.42 973.273 58.34 966.133 65.48C959.053 72.56 960.133 84.68 968.293 92.84C976.453 101.06 988.633 102.2 995.773 95.06C996.073 94.7 996.433 94.34 996.733 93.98ZM1030.17 59.18H1033.17V101.12H1030.17V79.76H1006.65V101.12H1003.71V59.18H1006.65V78.74H1030.17V59.18ZM1065.17 47.78L1055.87 56.66L1055.45 56.36L1059.71 47.78H1065.17ZM1069.91 59.06H1070.69V87.14C1070.69 96.56 1066.01 101.78 1056.59 101.78C1047.29 101.78 1042.43 96.74 1042.43 87.44V59.12H1045.37V87.14C1045.37 95.72 1049.45 100.28 1057.49 100.28C1065.11 100.28 1069.91 95.78 1069.91 87.2V59.06ZM1106.35 58.82H1107.13V101.78H1106.77L1080.37 63.08V101H1079.77V62.06L1077.97 59.3V59.18H1081.45L1106.35 95.96V58.82ZM1149.07 81.92L1152.07 81.62V101H1149.07V97.22C1140.73 103.76 1128.61 103.16 1120.93 95.48C1112.59 87.14 1112.59 73.64 1120.93 65.3C1129.27 56.96 1142.77 56.96 1151.11 65.3C1151.35 65.54 1151.59 65.78 1151.77 66.02L1149.25 68.42C1149.07 68.18 1148.83 67.94 1148.59 67.7C1140.43 59.54 1128.31 58.46 1121.17 65.6C1114.09 72.68 1115.17 84.8 1123.33 92.96C1130.89 100.52 1141.87 102.08 1149.07 96.62V81.92ZM1215.68 59.18L1219.58 101.12H1216.52L1212.86 62.12L1198.16 98.48H1197.92L1181.84 62L1177.64 101H1177.04L1181.3 60.86L1180.64 59.3V59.18H1183.82L1199.24 93.98L1213.34 59.18H1215.68ZM1230.29 56.36L1229.93 56.66L1220.69 47.78H1226.09L1230.29 56.36ZM1230.71 101.12H1227.71V59.18H1230.71V101.12ZM1267.25 58.82H1268.03V101.78H1267.67L1241.27 63.08V101H1240.67V62.06L1238.87 59.3V59.18H1242.35L1267.25 95.96V58.82ZM1304.15 59.18H1307.15V101.12H1304.15V79.76H1280.63V101.12H1277.69V59.18H1280.63V78.74H1304.15V59.18ZM1315.03 75.74L1314.61 75.32C1313.95 74.66 1313.95 73.52 1314.61 72.86L1315.03 72.44C1315.69 71.78 1316.83 71.78 1317.49 72.44L1317.91 72.86C1318.57 73.52 1318.57 74.66 1317.91 75.32L1317.49 75.74C1316.83 76.4 1315.69 76.4 1315.03 75.74ZM1317.91 97.28C1318.57 98 1318.57 99.08 1317.91 99.8L1317.49 100.16C1316.83 100.88 1315.69 100.88 1315.03 100.16L1314.61 99.8C1313.95 99.08 1313.95 98 1314.61 97.28L1315.03 96.92C1315.69 96.2 1316.83 96.2 1317.49 96.92L1317.91 97.28Z"/>
</mask>
<path d="M27.78 98.9H27.9L27 101.12H4.8V59.18H7.74V100.82H9.12C12.6 100.82 21.78 99.86 27.78 98.9ZM48.5077 56.36L48.0877 56.66L38.7877 47.78H44.2477L48.5077 56.36ZM62.9677 65.36C71.2477 73.7 71.2477 87.2 62.9077 95.54C54.6277 103.88 41.0677 103.88 32.7877 95.54C24.4477 87.26 24.4477 73.7 32.7877 65.42C41.1277 57.08 54.6277 57.08 62.9677 65.36ZM62.6677 95.3C69.7477 88.16 68.6077 75.98 60.4477 67.82C52.2877 59.66 40.1677 58.58 33.0277 65.66C25.9477 72.8 27.0277 84.92 35.1877 93.08C43.3477 101.24 55.5277 102.38 62.6677 95.3ZM79.6931 101.12H76.7531V59.18H79.6931V101.12ZM134.571 58.82H135.351V101.78H134.991L108.591 63.08V101H107.991V62.06L106.191 59.3V59.18H109.671L134.571 95.96V58.82ZM171.475 59.18H174.475V101.12H171.475V79.76H147.955V101.12H145.015V59.18H147.955V78.74H171.475V59.18ZM206.415 47.78L197.175 56.66L196.755 56.36L201.015 47.78H206.415ZM197.235 58.46L213.795 101.12H210.555L205.215 87.2H187.155C184.635 93.98 187.155 87.2 181.575 101.12H180.375C182.775 95.36 185.175 88.94 187.575 82.88L196.995 58.46H197.235ZM187.275 86.66H204.975L196.155 63.86L188.655 83.18L187.275 86.66ZM246.016 58.82H246.796V101.78H246.436L220.036 63.08V101H219.436V62.06L217.636 59.3V59.18H221.116L246.016 95.96V58.82ZM307.08 81.92L310.08 81.62V101H307.08V97.22C298.74 103.76 286.62 103.16 278.94 95.48C270.6 87.14 270.6 73.64 278.94 65.3C287.28 56.96 300.78 56.96 309.12 65.3C309.36 65.54 309.6 65.78 309.78 66.02L307.26 68.42C307.08 68.18 306.84 67.94 306.6 67.7C298.44 59.54 286.32 58.46 279.18 65.6C272.1 72.68 273.18 84.8 281.34 92.96C288.9 100.52 299.88 102.08 307.08 96.62V81.92ZM345.512 59.06H346.292V87.14C346.292 96.56 341.612 101.78 332.192 101.78C322.892 101.78 318.032 96.74 318.032 87.44V59.18H320.972V87.14C320.972 95.72 325.052 100.28 333.092 100.28C340.712 100.28 345.512 95.78 345.512 87.26V59.06ZM358.482 101.12H355.542V59.18H358.482V101.12ZM421.46 93.98L421.76 94.28C421.46 94.64 421.1 95 420.74 95.36C412.46 103.7 398.9 103.7 390.62 95.36C382.28 87.02 382.28 73.52 390.62 65.18C398.96 56.84 412.46 56.84 420.8 65.18C421.04 65.42 421.28 65.66 421.46 65.9L418.94 68.3C418.76 68.06 418.52 67.82 418.28 67.58C410.12 59.42 398 58.34 390.86 65.48C383.78 72.56 384.86 84.68 393.02 92.84C401.18 101.06 413.36 102.2 420.5 95.06C420.8 94.7 421.16 94.34 421.46 93.98ZM455.141 59.06H455.921V87.14C455.921 96.56 451.241 101.78 441.821 101.78C432.521 101.78 427.661 96.74 427.661 87.44V59.18H430.601V87.14C430.601 95.72 434.681 100.28 442.721 100.28C450.341 100.28 455.141 95.78 455.141 87.26V59.06ZM476.61 58.46L493.17 101.12H489.93L484.59 87.14H466.53C464.01 93.98 466.53 87.14 460.95 101.12H459.75C462.15 95.36 464.55 88.94 466.95 82.82L476.37 58.46H476.61ZM466.65 86.66H484.35L475.53 63.8L468.03 83.18L466.65 86.66ZM534.717 79.1C540.957 79.58 546.237 83.66 546.237 89.66C546.237 96.68 540.057 101.12 528.957 101.12H517.437V59.18H529.497C539.157 59.18 543.477 63.26 543.477 69.26C543.477 74.6 538.977 77.96 534.717 78.98V79.1ZM520.377 59.54V79.04H530.037C536.457 79.04 540.237 74.9 540.237 69.56C540.237 64.4 536.637 59.54 529.017 59.54H520.377ZM528.297 100.58C538.377 100.58 542.877 96.56 542.877 90.38C542.877 84.14 538.377 79.94 531.177 79.94H520.377V100.16C521.757 100.46 526.437 100.58 528.297 100.58ZM566.61 58.46L583.17 101.12H579.93L574.59 87.14H556.53C554.01 93.98 556.53 87.14 550.95 101.12H549.75C552.15 95.36 554.55 88.94 556.95 82.82L566.37 58.46H566.61ZM556.65 86.66H574.35L565.53 63.8L558.03 83.18L556.65 86.66ZM615.391 58.82H616.171V101.78H615.811L589.411 63.08V101H588.811V62.06L587.011 59.3V59.18H590.491L615.391 95.96V58.82ZM657.975 59.18C670.815 59.18 678.975 66.5 678.975 79.64C678.975 93.2 670.455 101.12 657.615 101.12H644.175V59.18H657.975ZM657.915 100.64C668.835 100.64 675.615 92.84 675.615 79.94C675.615 68.06 668.175 59.66 657.375 59.66H647.115V99.68C648.975 100.04 652.575 100.64 657.915 100.64ZM698.829 56.36L698.469 56.66L689.169 47.78H694.569L698.829 56.36ZM697.509 58.46L714.069 101.12H710.829L705.489 87.2H687.429C684.909 93.98 687.429 87.2 681.849 101.12H680.649C683.049 95.36 685.449 88.94 687.849 82.88L697.269 58.46H697.509ZM687.549 86.66H705.249L696.429 63.86L688.929 83.18L687.549 86.66ZM746.289 58.82H747.069V101.78H746.709L720.309 63.08V101H719.709V62.06L717.909 59.3V59.18H721.389L746.289 95.96V58.82ZM783.194 59.18H786.194V101.12H783.194V79.76H759.674V101.12H756.734V59.18H759.674V78.74H783.194V59.18ZM849.194 93.98L849.494 94.28C849.194 94.64 848.834 95 848.474 95.36C840.194 103.7 826.634 103.7 818.354 95.36C810.014 87.02 810.014 73.52 818.354 65.18C826.694 56.84 840.194 56.84 848.534 65.18C848.774 65.42 849.014 65.66 849.194 65.9L846.674 68.3C846.494 68.06 846.254 67.82 846.014 67.58C837.854 59.42 825.734 58.34 818.594 65.48C811.514 72.56 812.594 84.68 820.754 92.84C828.914 101.06 841.094 102.2 848.234 95.06C848.534 94.7 848.894 94.34 849.194 93.98ZM882.627 59.18H885.627V101.12H882.627V79.76H859.107V101.12H856.167V59.18H859.107V78.74H882.627V59.18ZM929.628 64.82C937.908 73.16 937.908 86.66 929.568 95C921.288 103.34 907.728 103.34 899.448 95C891.108 86.66 891.108 73.16 899.448 64.82C907.788 56.48 921.288 56.48 929.628 64.82ZM929.328 94.7C936.408 87.62 935.268 75.44 927.108 67.22C918.948 59.06 906.828 57.98 899.688 65.12C892.608 72.26 893.688 84.38 901.848 92.54C910.008 100.7 922.188 101.84 929.328 94.7ZM996.733 93.98L997.033 94.28C996.733 94.64 996.373 95 996.013 95.36C987.733 103.7 974.173 103.7 965.893 95.36C957.553 87.02 957.553 73.52 965.893 65.18C974.233 56.84 987.733 56.84 996.073 65.18C996.313 65.42 996.553 65.66 996.733 65.9L994.213 68.3C994.033 68.06 993.793 67.82 993.553 67.58C985.393 59.42 973.273 58.34 966.133 65.48C959.053 72.56 960.133 84.68 968.293 92.84C976.453 101.06 988.633 102.2 995.773 95.06C996.073 94.7 996.433 94.34 996.733 93.98ZM1030.17 59.18H1033.17V101.12H1030.17V79.76H1006.65V101.12H1003.71V59.18H1006.65V78.74H1030.17V59.18ZM1065.17 47.78L1055.87 56.66L1055.45 56.36L1059.71 47.78H1065.17ZM1069.91 59.06H1070.69V87.14C1070.69 96.56 1066.01 101.78 1056.59 101.78C1047.29 101.78 1042.43 96.74 1042.43 87.44V59.12H1045.37V87.14C1045.37 95.72 1049.45 100.28 1057.49 100.28C1065.11 100.28 1069.91 95.78 1069.91 87.2V59.06ZM1106.35 58.82H1107.13V101.78H1106.77L1080.37 63.08V101H1079.77V62.06L1077.97 59.3V59.18H1081.45L1106.35 95.96V58.82ZM1149.07 81.92L1152.07 81.62V101H1149.07V97.22C1140.73 103.76 1128.61 103.16 1120.93 95.48C1112.59 87.14 1112.59 73.64 1120.93 65.3C1129.27 56.96 1142.77 56.96 1151.11 65.3C1151.35 65.54 1151.59 65.78 1151.77 66.02L1149.25 68.42C1149.07 68.18 1148.83 67.94 1148.59 67.7C1140.43 59.54 1128.31 58.46 1121.17 65.6C1114.09 72.68 1115.17 84.8 1123.33 92.96C1130.89 100.52 1141.87 102.08 1149.07 96.62V81.92ZM1215.68 59.18L1219.58 101.12H1216.52L1212.86 62.12L1198.16 98.48H1197.92L1181.84 62L1177.64 101H1177.04L1181.3 60.86L1180.64 59.3V59.18H1183.82L1199.24 93.98L1213.34 59.18H1215.68ZM1230.29 56.36L1229.93 56.66L1220.69 47.78H1226.09L1230.29 56.36ZM1230.71 101.12H1227.71V59.18H1230.71V101.12ZM1267.25 58.82H1268.03V101.78H1267.67L1241.27 63.08V101H1240.67V62.06L1238.87 59.3V59.18H1242.35L1267.25 95.96V58.82ZM1304.15 59.18H1307.15V101.12H1304.15V79.76H1280.63V101.12H1277.69V59.18H1280.63V78.74H1304.15V59.18ZM1315.03 75.74L1314.61 75.32C1313.95 74.66 1313.95 73.52 1314.61 72.86L1315.03 72.44C1315.69 71.78 1316.83 71.78 1317.49 72.44L1317.91 72.86C1318.57 73.52 1318.57 74.66 1317.91 75.32L1317.49 75.74C1316.83 76.4 1315.69 76.4 1315.03 75.74ZM1317.91 97.28C1318.57 98 1318.57 99.08 1317.91 99.8L1317.49 100.16C1316.83 100.88 1315.69 100.88 1315.03 100.16L1314.61 99.8C1313.95 99.08 1313.95 98 1314.61 97.28L1315.03 96.92C1315.69 96.2 1316.83 96.2 1317.49 96.92L1317.91 97.28Z" fill="#4C5637"/>
<path d="M27.78 98.9V98.7H27.7641L27.7484 98.7025L27.78 98.9ZM27.9 98.9L28.0854 98.9751L28.1969 98.7H27.9V98.9ZM27 101.12V101.32H27.1347L27.1853 101.195L27 101.12ZM4.8 101.12H4.6V101.32H4.8V101.12ZM4.8 59.18V58.98H4.6V59.18H4.8ZM7.74 59.18H7.94V58.98H7.74V59.18ZM7.74 100.82H7.54V101.02H7.74V100.82ZM27.78 99.1H27.9V98.7H27.78V99.1ZM27.7147 98.8249L26.8147 101.045L27.1853 101.195L28.0854 98.9751L27.7147 98.8249ZM27 100.92H4.8V101.32H27V100.92ZM5 101.12V59.18H4.6V101.12H5ZM4.8 59.38H7.74V58.98H4.8V59.38ZM7.54 59.18V100.82H7.94V59.18H7.54ZM7.74 101.02H9.12V100.62H7.74V101.02ZM9.12 101.02C12.616 101.02 21.8084 100.058 27.8116 99.0975L27.7484 98.7025C21.7516 99.662 12.584 100.62 9.12 100.62V101.02ZM48.5077 56.36L48.6239 56.5227L48.7626 56.4237L48.6868 56.2711L48.5077 56.36ZM48.0877 56.66L47.9495 56.8046L48.0692 56.9189L48.2039 56.8227L48.0877 56.66ZM38.7877 47.78V47.58H38.2886L38.6495 47.9246L38.7877 47.78ZM44.2477 47.78L44.4268 47.6911L44.3717 47.58H44.2477V47.78ZM62.9677 65.36L63.1096 65.2191L63.1086 65.2181L62.9677 65.36ZM62.9077 95.54L62.7662 95.3986L62.7657 95.3991L62.9077 95.54ZM32.7877 95.54L32.9296 95.3991L32.9286 95.3981L32.7877 95.54ZM32.7877 65.42L32.9286 65.5619L32.9291 65.5614L32.7877 65.42ZM62.6677 95.3L62.8085 95.442L62.8097 95.4408L62.6677 95.3ZM60.4477 67.82L60.3062 67.9614L60.4477 67.82ZM33.0277 65.66L32.8868 65.518L32.8856 65.5192L33.0277 65.66ZM35.1877 93.08L35.0462 93.2214L35.1877 93.08ZM48.3914 56.1973L47.9714 56.4973L48.2039 56.8227L48.6239 56.5227L48.3914 56.1973ZM48.2258 56.5153L38.9258 47.6353L38.6495 47.9246L47.9495 56.8046L48.2258 56.5153ZM38.7877 47.98H44.2477V47.58H38.7877V47.98ZM44.0685 47.8689L48.3285 56.4489L48.6868 56.2711L44.4268 47.6911L44.0685 47.8689ZM62.8257 65.5009C71.0282 73.7628 71.0282 87.1366 62.7662 95.3986L63.0491 95.6814C71.4671 87.2634 71.4671 73.6372 63.1096 65.2191L62.8257 65.5009ZM62.7657 95.3991C54.5639 103.66 41.1314 103.66 32.9296 95.3991L32.6457 95.6809C41.0039 104.1 54.6914 104.1 63.0496 95.6809L62.7657 95.3991ZM32.9286 95.3981C24.6674 87.1963 24.6674 73.7637 32.9286 65.5619L32.6467 65.2781C24.228 73.6363 24.228 87.3237 32.6467 95.6819L32.9286 95.3981ZM32.9291 65.5614C41.1911 57.2994 54.5648 57.2994 62.8267 65.5019L63.1086 65.2181C54.6905 56.8606 41.0643 56.8606 32.6462 65.2786L32.9291 65.5614ZM62.8097 95.4408C69.9881 88.2015 68.8041 75.8936 60.5891 67.6786L60.3062 67.9614C68.4112 76.0664 69.5072 88.1185 62.5256 95.1592L62.8097 95.4408ZM60.5891 67.6786C52.3732 59.4627 40.1254 58.3402 32.8868 65.518L33.1685 65.802C40.2099 58.8198 52.2021 59.8573 60.3062 67.9614L60.5891 67.6786ZM32.8856 65.5192C25.7079 72.7578 26.8304 85.0056 35.0462 93.2214L35.3291 92.9386C27.2249 84.8344 26.1875 72.8422 33.1697 65.8008L32.8856 65.5192ZM35.0462 93.2214C43.2613 101.436 55.5692 102.62 62.8085 95.442L62.5268 95.158C55.4861 102.14 43.434 101.044 35.3291 92.9386L35.0462 93.2214ZM79.6931 101.12V101.32H79.8931V101.12H79.6931ZM76.7531 101.12H76.5531V101.32H76.7531V101.12ZM76.7531 59.18V58.98H76.5531V59.18H76.7531ZM79.6931 59.18H79.8931V58.98H79.6931V59.18ZM79.6931 100.92H76.7531V101.32H79.6931V100.92ZM76.9531 101.12V59.18H76.5531V101.12H76.9531ZM76.7531 59.38H79.6931V58.98H76.7531V59.38ZM79.4931 59.18V101.12H79.8931V59.18H79.4931ZM134.571 58.82V58.62H134.371V58.82H134.571ZM135.351 58.82H135.551V58.62H135.351V58.82ZM135.351 101.78V101.98H135.551V101.78H135.351ZM134.991 101.78L134.825 101.893L134.885 101.98H134.991V101.78ZM108.591 63.08L108.756 62.9673L108.391 62.4319V63.08H108.591ZM108.591 101V101.2H108.791V101H108.591ZM107.991 101H107.791V101.2H107.991V101ZM107.991 62.06H108.191V62.0005L108.158 61.9507L107.991 62.06ZM106.191 59.3H105.991V59.3595L106.023 59.4093L106.191 59.3ZM106.191 59.18V58.98H105.991V59.18H106.191ZM109.671 59.18L109.836 59.0679L109.777 58.98H109.671V59.18ZM134.571 95.96L134.405 96.0721L134.771 96.6122V95.96H134.571ZM134.571 59.02H135.351V58.62H134.571V59.02ZM135.151 58.82V101.78H135.551V58.82H135.151ZM135.351 101.58H134.991V101.98H135.351V101.58ZM135.156 101.667L108.756 62.9673L108.425 63.1927L134.825 101.893L135.156 101.667ZM108.391 63.08V101H108.791V63.08H108.391ZM108.591 100.8H107.991V101.2H108.591V100.8ZM108.191 101V62.06H107.791V101H108.191ZM108.158 61.9507L106.358 59.1907L106.023 59.4093L107.823 62.1693L108.158 61.9507ZM106.391 59.3V59.18H105.991V59.3H106.391ZM106.191 59.38H109.671V58.98H106.191V59.38ZM109.505 59.2921L134.405 96.0721L134.736 95.8479L109.836 59.0679L109.505 59.2921ZM134.771 95.96V58.82H134.371V95.96H134.771ZM171.475 59.18V58.98H171.275V59.18H171.475ZM174.475 59.18H174.675V58.98H174.475V59.18ZM174.475 101.12V101.32H174.675V101.12H174.475ZM171.475 101.12H171.275V101.32H171.475V101.12ZM171.475 79.76H171.675V79.56H171.475V79.76ZM147.955 79.76V79.56H147.755V79.76H147.955ZM147.955 101.12V101.32H148.155V101.12H147.955ZM145.015 101.12H144.815V101.32H145.015V101.12ZM145.015 59.18V58.98H144.815V59.18H145.015ZM147.955 59.18H148.155V58.98H147.955V59.18ZM147.955 78.74H147.755V78.94H147.955V78.74ZM171.475 78.74V78.94H171.675V78.74H171.475ZM171.475 59.38H174.475V58.98H171.475V59.38ZM174.275 59.18V101.12H174.675V59.18H174.275ZM174.475 100.92H171.475V101.32H174.475V100.92ZM171.675 101.12V79.76H171.275V101.12H171.675ZM171.475 79.56H147.955V79.96H171.475V79.56ZM147.755 79.76V101.12H148.155V79.76H147.755ZM147.955 100.92H145.015V101.32H147.955V100.92ZM145.215 101.12V59.18H144.815V101.12H145.215ZM145.015 59.38H147.955V58.98H145.015V59.38ZM147.755 59.18V78.74H148.155V59.18H147.755ZM147.955 78.94H171.475V78.54H147.955V78.94ZM171.675 78.74V59.18H171.275V78.74H171.675ZM206.415 47.78L206.554 47.9242L206.912 47.58H206.415V47.78ZM197.175 56.66L197.059 56.8227L197.194 56.9193L197.314 56.8042L197.175 56.66ZM196.755 56.36L196.576 56.2711L196.501 56.4237L196.639 56.5227L196.755 56.36ZM201.015 47.78V47.58H200.891L200.836 47.6911L201.015 47.78ZM197.235 58.46L197.422 58.3876L197.372 58.26H197.235V58.46ZM213.795 101.12V101.32H214.088L213.982 101.048L213.795 101.12ZM210.555 101.12L210.369 101.192L210.418 101.32H210.555V101.12ZM205.215 87.2L205.402 87.1284L205.353 87H205.215V87.2ZM187.155 87.2V87H187.016L186.968 87.1303L187.155 87.2ZM181.575 101.12V101.32H181.711L181.761 101.194L181.575 101.12ZM180.375 101.12L180.191 101.043L180.075 101.32H180.375V101.12ZM187.575 82.88L187.761 82.9536L187.762 82.952L187.575 82.88ZM196.995 58.46V58.26H196.858L196.809 58.388L196.995 58.46ZM187.275 86.66L187.09 86.5863L186.981 86.86H187.275V86.66ZM204.975 86.66V86.86H205.267L205.162 86.5878L204.975 86.66ZM196.155 63.86L196.342 63.7878L196.156 63.3065L195.969 63.7876L196.155 63.86ZM188.655 83.18L188.841 83.2537L188.842 83.2524L188.655 83.18ZM206.277 47.6358L197.037 56.5158L197.314 56.8042L206.554 47.9242L206.277 47.6358ZM197.292 56.4973L196.872 56.1973L196.639 56.5227L197.059 56.8227L197.292 56.4973ZM196.935 56.4489L201.195 47.8689L200.836 47.6911L196.576 56.2711L196.935 56.4489ZM201.015 47.98H206.415V47.58H201.015V47.98ZM197.049 58.5324L213.609 101.192L213.982 101.048L197.422 58.3876L197.049 58.5324ZM213.795 100.92H210.555V101.32H213.795V100.92ZM210.742 101.048L205.402 87.1284L205.029 87.2716L210.369 101.192L210.742 101.048ZM205.215 87H187.155V87.4H205.215V87ZM186.968 87.1303C185.707 90.5218 185.709 90.5167 185.329 91.4037C184.946 92.2982 184.18 94.0848 181.39 101.046L181.761 101.194C184.551 94.2352 185.315 92.4518 185.697 91.5613C186.082 90.6633 186.083 90.6582 187.343 87.2697L186.968 87.1303ZM181.575 100.92H180.375V101.32H181.575V100.92ZM180.56 101.197C182.961 95.4352 185.364 89.0081 187.761 82.9536L187.39 82.8064C184.987 88.8719 182.59 95.2848 180.191 101.043L180.56 101.197ZM187.762 82.952L197.182 58.532L196.809 58.388L187.389 82.808L187.762 82.952ZM196.995 58.66H197.235V58.26H196.995V58.66ZM187.275 86.86H204.975V86.46H187.275V86.86ZM205.162 86.5878L196.342 63.7878L195.969 63.9322L204.789 86.7322L205.162 86.5878ZM195.969 63.7876L188.469 83.1076L188.842 83.2524L196.342 63.9324L195.969 63.7876ZM188.47 83.1063L187.09 86.5863L187.461 86.7337L188.841 83.2537L188.47 83.1063ZM246.016 58.82V58.62H245.816V58.82H246.016ZM246.796 58.82H246.996V58.62H246.796V58.82ZM246.796 101.78V101.98H246.996V101.78H246.796ZM246.436 101.78L246.271 101.893L246.33 101.98H246.436V101.78ZM220.036 63.08L220.201 62.9673L219.836 62.4319V63.08H220.036ZM220.036 101V101.2H220.236V101H220.036ZM219.436 101H219.236V101.2H219.436V101ZM219.436 62.06H219.636V62.0005L219.603 61.9507L219.436 62.06ZM217.636 59.3H217.436V59.3595L217.468 59.4093L217.636 59.3ZM217.636 59.18V58.98H217.436V59.18H217.636ZM221.116 59.18L221.282 59.0679L221.222 58.98H221.116V59.18ZM246.016 95.96L245.85 96.0721L246.216 96.6122V95.96H246.016ZM246.016 59.02H246.796V58.62H246.016V59.02ZM246.596 58.82V101.78H246.996V58.82H246.596ZM246.796 101.58H246.436V101.98H246.796V101.58ZM246.601 101.667L220.201 62.9673L219.871 63.1927L246.271 101.893L246.601 101.667ZM219.836 63.08V101H220.236V63.08H219.836ZM220.036 100.8H219.436V101.2H220.036V100.8ZM219.636 101V62.06H219.236V101H219.636ZM219.603 61.9507L217.803 59.1907L217.468 59.4093L219.268 62.1693L219.603 61.9507ZM217.836 59.3V59.18H217.436V59.3H217.836ZM217.636 59.38H221.116V58.98H217.636V59.38ZM220.95 59.2921L245.85 96.0721L246.182 95.8479L221.282 59.0679L220.95 59.2921ZM246.216 95.96V58.82H245.816V95.96H246.216ZM307.08 81.92L307.06 81.721L306.88 81.739V81.92H307.08ZM310.08 81.62H310.28V81.399L310.06 81.421L310.08 81.62ZM310.08 101V101.2H310.28V101H310.08ZM307.08 101H306.88V101.2H307.08V101ZM307.08 97.22H307.28V96.809L306.957 97.0626L307.08 97.22ZM278.94 95.48L279.081 95.3386L278.94 95.48ZM278.94 65.3L278.799 65.1586L278.94 65.3ZM309.78 66.02L309.918 66.1648L310.047 66.0422L309.94 65.9L309.78 66.02ZM307.26 68.42L307.1 68.54L307.235 68.72L307.398 68.5648L307.26 68.42ZM306.6 67.7L306.459 67.8414L306.6 67.7ZM279.18 65.6L279.321 65.7414L279.18 65.6ZM281.34 92.96L281.199 93.1014L281.34 92.96ZM307.08 96.62L307.201 96.7794L307.28 96.7193V96.62H307.08ZM307.1 82.119L310.1 81.819L310.06 81.421L307.06 81.721L307.1 82.119ZM309.88 81.62V101H310.28V81.62H309.88ZM310.08 100.8H307.08V101.2H310.08V100.8ZM307.28 101V97.22H306.88V101H307.28ZM306.957 97.0626C298.696 103.541 286.689 102.947 279.081 95.3386L278.799 95.6214C286.551 103.373 298.784 103.979 307.203 97.3774L306.957 97.0626ZM279.081 95.3386C270.82 87.0767 270.82 73.7033 279.081 65.4414L278.799 65.1586C270.38 73.5767 270.38 87.2033 278.799 95.6214L279.081 95.3386ZM279.081 65.4414C287.343 57.1795 300.717 57.1795 308.979 65.4414L309.261 65.1586C300.843 56.7405 287.217 56.7405 278.799 65.1586L279.081 65.4414ZM308.979 65.4414C309.221 65.684 309.45 65.9136 309.62 66.14L309.94 65.9C309.75 65.6464 309.499 65.396 309.261 65.1586L308.979 65.4414ZM309.642 65.8752L307.122 68.2752L307.398 68.5648L309.918 66.1648L309.642 65.8752ZM307.42 68.3C307.23 68.0464 306.979 67.796 306.741 67.5586L306.459 67.8414C306.701 68.084 306.93 68.3136 307.1 68.54L307.42 68.3ZM306.741 67.5586C298.526 59.3427 286.277 58.22 279.039 65.4586L279.321 65.7414C286.363 58.7 298.354 59.7373 306.459 67.8414L306.741 67.5586ZM279.039 65.4586C271.86 72.6376 272.983 84.886 281.199 93.1014L281.481 92.8186C273.377 84.714 272.34 72.7224 279.321 65.7414L279.039 65.4586ZM281.199 93.1014C288.81 100.713 299.902 102.315 307.201 96.7794L306.959 96.4606C299.858 101.845 288.99 100.327 281.481 92.8186L281.199 93.1014ZM307.28 96.62V81.92H306.88V96.62H307.28ZM345.512 59.06V58.86H345.312V59.06H345.512ZM346.292 59.06H346.492V58.86H346.292V59.06ZM318.032 59.18V58.98H317.832V59.18H318.032ZM320.972 59.18H321.172V58.98H320.972V59.18ZM345.512 59.26H346.292V58.86H345.512V59.26ZM346.092 59.06V87.14H346.492V59.06H346.092ZM346.092 87.14C346.092 91.8195 344.93 95.4224 342.63 97.8551C340.331 100.286 336.866 101.58 332.192 101.58V101.98C336.939 101.98 340.524 100.664 342.92 98.1299C345.315 95.5976 346.492 91.8805 346.492 87.14H346.092ZM332.192 101.58C327.577 101.58 324.096 100.33 321.768 97.9574C319.438 95.5842 318.232 92.057 318.232 87.44H317.832C317.832 92.123 319.056 95.7658 321.482 98.2376C323.909 100.71 327.507 101.98 332.192 101.98V101.58ZM318.232 87.44V59.18H317.832V87.44H318.232ZM318.032 59.38H320.972V58.98H318.032V59.38ZM320.772 59.18V87.14H321.172V59.18H320.772ZM320.772 87.14C320.772 91.4585 321.799 94.7999 323.87 97.0625C325.944 99.3283 329.035 100.48 333.092 100.48V100.08C329.11 100.08 326.141 98.9517 324.165 96.7925C322.186 94.6301 321.172 91.4015 321.172 87.14H320.772ZM333.092 100.48C336.942 100.48 340.103 99.3426 342.302 97.1052C344.501 94.868 345.712 91.557 345.712 87.26H345.312C345.312 91.483 344.123 94.682 342.017 96.8248C339.911 98.9674 336.863 100.08 333.092 100.08V100.48ZM345.712 87.26V59.06H345.312V87.26H345.712ZM358.482 101.12V101.32H358.682V101.12H358.482ZM355.542 101.12H355.342V101.32H355.542V101.12ZM355.542 59.18V58.98H355.342V59.18H355.542ZM358.482 59.18H358.682V58.98H358.482V59.18ZM358.482 100.92H355.542V101.32H358.482V100.92ZM355.742 101.12V59.18H355.342V101.12H355.742ZM355.542 59.38H358.482V58.98H355.542V59.38ZM358.282 59.18V101.12H358.682V59.18H358.282ZM421.46 93.98L421.601 93.8386L421.446 93.6837L421.306 93.852L421.46 93.98ZM421.76 94.28L421.913 94.408L422.03 94.2677L421.901 94.1386L421.76 94.28ZM420.74 95.36L420.598 95.2186L420.598 95.2191L420.74 95.36ZM390.62 95.36L390.762 95.2191L390.761 95.2186L390.62 95.36ZM390.62 65.18L390.761 65.3214L390.62 65.18ZM420.8 65.18L420.658 65.3214V65.3214L420.8 65.18ZM421.46 65.9L421.598 66.0448L421.726 65.9222L421.62 65.78L421.46 65.9ZM418.94 68.3L418.78 68.42L418.915 68.6L419.078 68.4448L418.94 68.3ZM390.86 65.48L391.001 65.6214L390.86 65.48ZM393.02 92.84L393.162 92.6991L393.161 92.6986L393.02 92.84ZM420.5 95.06L420.641 95.2014L420.648 95.195L420.653 95.188L420.5 95.06ZM421.318 94.1214L421.618 94.4214L421.901 94.1386L421.601 93.8386L421.318 94.1214ZM421.606 94.152C421.313 94.5037 420.96 94.8571 420.598 95.2186L420.881 95.5014C421.24 95.1429 421.606 94.7763 421.913 94.408L421.606 94.152ZM420.598 95.2191C412.396 103.48 398.963 103.48 390.762 95.2191L390.478 95.5009C398.836 103.92 412.523 103.92 420.882 95.5009L420.598 95.2191ZM390.761 95.2186C382.499 86.9567 382.499 73.5833 390.761 65.3214L390.478 65.0386C382.06 73.4567 382.06 87.0833 390.478 95.5014L390.761 95.2186ZM390.761 65.3214C399.023 57.0595 412.396 57.0595 420.658 65.3214L420.941 65.0386C412.523 56.6205 398.896 56.6205 390.478 65.0386L390.761 65.3214ZM420.658 65.3214C420.901 65.564 421.13 65.7936 421.3 66.02L421.62 65.78C421.43 65.5264 421.178 65.276 420.941 65.0386L420.658 65.3214ZM421.322 65.7552L418.802 68.1552L419.078 68.4448L421.598 66.0448L421.322 65.7552ZM419.1 68.18C418.909 67.9264 418.659 67.676 418.421 67.4386L418.138 67.7214C418.381 67.964 418.61 68.1936 418.78 68.42L419.1 68.18ZM418.421 67.4386C410.205 59.2227 397.957 58.1 390.718 65.3386L391.001 65.6214C398.042 58.58 410.034 59.6173 418.138 67.7214L418.421 67.4386ZM390.718 65.3386C383.539 72.5176 384.663 84.766 392.878 92.9814L393.161 92.6986C385.057 84.594 384.02 72.6024 391.001 65.6214L390.718 65.3386ZM392.878 92.9809C401.093 101.256 413.402 102.441 420.641 95.2014L420.358 94.9186C413.318 101.959 401.267 100.864 393.162 92.6991L392.878 92.9809ZM420.653 95.188C420.8 95.0123 420.961 94.8358 421.127 94.6551C421.292 94.4758 421.46 94.2923 421.613 94.108L421.306 93.852C421.16 94.0277 420.998 94.2042 420.832 94.3849C420.668 94.5642 420.5 94.7477 420.346 94.932L420.653 95.188ZM455.141 59.06V58.86H454.941V59.06H455.141ZM455.921 59.06H456.121V58.86H455.921V59.06ZM427.661 59.18V58.98H427.461V59.18H427.661ZM430.601 59.18H430.801V58.98H430.601V59.18ZM455.141 59.26H455.921V58.86H455.141V59.26ZM455.721 59.06V87.14H456.121V59.06H455.721ZM455.721 87.14C455.721 91.8195 454.559 95.4224 452.258 97.8551C449.96 100.286 446.495 101.58 441.821 101.58V101.98C446.568 101.98 450.153 100.664 452.549 98.1299C454.944 95.5976 456.121 91.8805 456.121 87.14H455.721ZM441.821 101.58C437.206 101.58 433.725 100.33 431.396 97.9574C429.067 95.5842 427.861 92.057 427.861 87.44H427.461C427.461 92.123 428.685 95.7658 431.111 98.2376C433.537 100.71 437.136 101.98 441.821 101.98V101.58ZM427.861 87.44V59.18H427.461V87.44H427.861ZM427.661 59.38H430.601V58.98H427.661V59.38ZM430.401 59.18V87.14H430.801V59.18H430.401ZM430.401 87.14C430.401 91.4585 431.428 94.7999 433.499 97.0625C435.573 99.3283 438.664 100.48 442.721 100.48V100.08C438.739 100.08 435.77 98.9517 433.794 96.7925C431.815 94.6301 430.801 91.4015 430.801 87.14H430.401ZM442.721 100.48C446.57 100.48 449.732 99.3426 451.931 97.1052C454.13 94.868 455.341 91.557 455.341 87.26H454.941C454.941 91.483 453.752 94.682 451.646 96.8248C449.54 98.9674 446.492 100.08 442.721 100.08V100.48ZM455.341 87.26V59.06H454.941V87.26H455.341ZM476.61 58.46L476.797 58.3876L476.747 58.26H476.61V58.46ZM493.17 101.12V101.32H493.463L493.357 101.048L493.17 101.12ZM489.93 101.12L489.744 101.191L489.793 101.32H489.93V101.12ZM484.59 87.14L484.777 87.0686L484.728 86.94H484.59V87.14ZM466.53 87.14V86.94H466.391L466.343 87.0709L466.53 87.14ZM460.95 101.12V101.32H461.086L461.136 101.194L460.95 101.12ZM459.75 101.12L459.566 101.043L459.45 101.32H459.75V101.12ZM466.95 82.82L467.137 82.893L467.137 82.8921L466.95 82.82ZM476.37 58.46V58.26H476.233L476.184 58.3879L476.37 58.46ZM466.65 86.66L466.465 86.5863L466.356 86.86H466.65V86.66ZM484.35 86.66V86.86H484.642L484.537 86.588L484.35 86.66ZM475.53 63.8L475.717 63.728L475.531 63.2451L475.344 63.7278L475.53 63.8ZM468.03 83.18L468.216 83.2537L468.217 83.2522L468.03 83.18ZM476.424 58.5324L492.984 101.192L493.357 101.048L476.797 58.3876L476.424 58.5324ZM493.17 100.92H489.93V101.32H493.17V100.92ZM490.117 101.049L484.777 87.0686L484.404 87.2114L489.744 101.191L490.117 101.049ZM484.59 86.94H466.53V87.34H484.59V86.94ZM466.343 87.0709C465.082 90.4925 465.084 90.487 464.704 91.3737C464.321 92.2683 463.555 94.055 460.765 101.046L461.136 101.194C463.926 94.205 464.69 92.4216 465.072 91.5313C465.457 90.633 465.459 90.6275 466.718 87.2091L466.343 87.0709ZM460.95 100.92H459.75V101.32H460.95V100.92ZM459.935 101.197C462.336 95.4345 464.738 89.0086 467.137 82.893L466.764 82.747C464.363 88.8714 461.965 95.2855 459.566 101.043L459.935 101.197ZM467.137 82.8921L476.557 58.5321L476.184 58.3879L466.764 82.7479L467.137 82.8921ZM476.37 58.66H476.61V58.26H476.37V58.66ZM466.65 86.86H484.35V86.46H466.65V86.86ZM484.537 86.588L475.717 63.728L475.344 63.872L484.164 86.732L484.537 86.588ZM475.344 63.7278L467.844 83.1078L468.217 83.2522L475.717 63.8722L475.344 63.7278ZM467.845 83.1063L466.465 86.5863L466.836 86.7337L468.216 83.2537L467.845 83.1063ZM534.717 79.1H534.517V79.2852L534.701 79.2994L534.717 79.1ZM517.437 101.12H517.237V101.32H517.437V101.12ZM517.437 59.18V58.98H517.237V59.18H517.437ZM534.717 78.98L534.67 78.7855L534.517 78.8222V78.98H534.717ZM520.377 59.54V59.34H520.177V59.54H520.377ZM520.377 79.04H520.177V79.24H520.377V79.04ZM520.377 79.94V79.74H520.177V79.94H520.377ZM520.377 100.16H520.177V100.321L520.334 100.355L520.377 100.16ZM534.701 79.2994C540.878 79.7745 546.037 83.8011 546.037 89.66H546.437C546.437 83.5189 541.035 79.3855 534.732 78.9006L534.701 79.2994ZM546.037 89.66C546.037 93.1022 544.526 95.9058 541.647 97.8569C538.76 99.8139 534.484 100.92 528.957 100.92V101.32C534.529 101.32 538.894 100.206 541.871 98.1881C544.858 96.1642 546.437 93.2378 546.437 89.66H546.037ZM528.957 100.92H517.437V101.32H528.957V100.92ZM517.637 101.12V59.18H517.237V101.12H517.637ZM517.437 59.38H529.497V58.98H517.437V59.38ZM529.497 59.38C534.303 59.38 537.748 60.3955 539.987 62.1282C542.218 63.8549 543.277 66.3126 543.277 69.26H543.677C543.677 66.2074 542.575 63.6251 540.232 61.8118C537.896 60.0045 534.351 58.98 529.497 58.98V59.38ZM543.277 69.26C543.277 74.4687 538.884 77.7765 534.67 78.7855L534.763 79.1745C539.069 78.1435 543.677 74.7313 543.677 69.26H543.277ZM534.517 78.98V79.1H534.917V78.98H534.517ZM520.177 59.54V79.04H520.577V59.54H520.177ZM520.377 79.24H530.037V78.84H520.377V79.24ZM530.037 79.24C533.291 79.24 535.893 78.1899 537.684 76.4458C539.474 74.7018 540.437 72.2782 540.437 69.56H540.037C540.037 72.1818 539.11 74.4982 537.405 76.1592C535.7 77.8201 533.203 78.84 530.037 78.84V79.24ZM540.437 69.56C540.437 66.9339 539.52 64.3759 537.626 62.4739C535.73 60.5703 532.871 59.34 529.017 59.34V59.74C532.783 59.74 535.533 60.9397 537.343 62.7561C539.153 64.5741 540.037 67.0261 540.037 69.56H540.437ZM529.017 59.34H520.377V59.74H529.017V59.34ZM528.297 100.78C533.359 100.78 537.053 99.7714 539.486 97.9579C541.929 96.1374 543.077 93.524 543.077 90.38H542.677C542.677 93.416 541.575 95.9026 539.247 97.6371C536.911 99.3786 533.315 100.38 528.297 100.38V100.78ZM543.077 90.38C543.077 87.2094 541.932 84.5434 539.861 82.6716C537.792 80.8016 534.815 79.74 531.177 79.74V80.14C534.738 80.14 537.612 81.1784 539.593 82.9684C541.571 84.7566 542.677 87.3106 542.677 90.38H543.077ZM531.177 79.74H520.377V80.14H531.177V79.74ZM520.177 79.94V100.16H520.577V79.94H520.177ZM520.334 100.355C521.044 100.51 522.578 100.615 524.148 100.682C525.726 100.75 527.364 100.78 528.297 100.78V100.38C527.37 100.38 525.738 100.35 524.165 100.283C522.585 100.215 521.089 100.11 520.419 99.9646L520.334 100.355ZM566.61 58.46L566.797 58.3876L566.747 58.26H566.61V58.46ZM583.17 101.12V101.32H583.463L583.357 101.048L583.17 101.12ZM579.93 101.12L579.744 101.191L579.793 101.32H579.93V101.12ZM574.59 87.14L574.777 87.0686L574.728 86.94H574.59V87.14ZM556.53 87.14V86.94H556.391L556.343 87.0709L556.53 87.14ZM550.95 101.12V101.32H551.086L551.136 101.194L550.95 101.12ZM549.75 101.12L549.566 101.043L549.45 101.32H549.75V101.12ZM556.95 82.82L557.137 82.893L557.137 82.8921L556.95 82.82ZM566.37 58.46V58.26H566.233L566.184 58.3879L566.37 58.46ZM556.65 86.66L556.465 86.5863L556.356 86.86H556.65V86.66ZM574.35 86.66V86.86H574.642L574.537 86.588L574.35 86.66ZM565.53 63.8L565.717 63.728L565.531 63.2451L565.344 63.7278L565.53 63.8ZM558.03 83.18L558.216 83.2537L558.217 83.2522L558.03 83.18ZM566.424 58.5324L582.984 101.192L583.357 101.048L566.797 58.3876L566.424 58.5324ZM583.17 100.92H579.93V101.32H583.17V100.92ZM580.117 101.049L574.777 87.0686L574.404 87.2114L579.744 101.191L580.117 101.049ZM574.59 86.94H556.53V87.34H574.59V86.94ZM556.343 87.0709C555.082 90.4925 555.084 90.487 554.704 91.3737C554.321 92.2683 553.555 94.055 550.765 101.046L551.136 101.194C553.926 94.205 554.69 92.4216 555.072 91.5313C555.457 90.633 555.459 90.6275 556.718 87.2091L556.343 87.0709ZM550.95 100.92H549.75V101.32H550.95V100.92ZM549.935 101.197C552.336 95.4345 554.738 89.0086 557.137 82.893L556.764 82.747C554.363 88.8714 551.965 95.2855 549.566 101.043L549.935 101.197ZM557.137 82.8921L566.557 58.5321L566.184 58.3879L556.764 82.7479L557.137 82.8921ZM566.37 58.66H566.61V58.26H566.37V58.66ZM556.65 86.86H574.35V86.46H556.65V86.86ZM574.537 86.588L565.717 63.728L565.344 63.872L574.164 86.732L574.537 86.588ZM565.344 63.7278L557.844 83.1078L558.217 83.2522L565.717 63.8722L565.344 63.7278ZM557.845 83.1063L556.465 86.5863L556.836 86.7337L558.216 83.2537L557.845 83.1063ZM615.391 58.82V58.62H615.191V58.82H615.391ZM616.171 58.82H616.371V58.62H616.171V58.82ZM616.171 101.78V101.98H616.371V101.78H616.171ZM615.811 101.78L615.646 101.893L615.705 101.98H615.811V101.78ZM589.411 63.08L589.576 62.9673L589.211 62.4319V63.08H589.411ZM589.411 101V101.2H589.611V101H589.411ZM588.811 101H588.611V101.2H588.811V101ZM588.811 62.06H589.011V62.0005L588.978 61.9507L588.811 62.06ZM587.011 59.3H586.811V59.3595L586.843 59.4093L587.011 59.3ZM587.011 59.18V58.98H586.811V59.18H587.011ZM590.491 59.18L590.657 59.0679L590.597 58.98H590.491V59.18ZM615.391 95.96L615.225 96.0721L615.591 96.6122V95.96H615.391ZM615.391 59.02H616.171V58.62H615.391V59.02ZM615.971 58.82V101.78H616.371V58.82H615.971ZM616.171 101.58H615.811V101.98H616.171V101.58ZM615.976 101.667L589.576 62.9673L589.246 63.1927L615.646 101.893L615.976 101.667ZM589.211 63.08V101H589.611V63.08H589.211ZM589.411 100.8H588.811V101.2H589.411V100.8ZM589.011 101V62.06H588.611V101H589.011ZM588.978 61.9507L587.178 59.1907L586.843 59.4093L588.643 62.1693L588.978 61.9507ZM587.211 59.3V59.18H586.811V59.3H587.211ZM587.011 59.38H590.491V58.98H587.011V59.38ZM590.325 59.2921L615.225 96.0721L615.557 95.8479L590.657 59.0679L590.325 59.2921ZM615.591 95.96V58.82H615.191V95.96H615.591ZM644.175 101.12H643.975V101.32H644.175V101.12ZM644.175 59.18V58.98H643.975V59.18H644.175ZM647.115 59.66V59.46H646.915V59.66H647.115ZM647.115 99.68H646.915V99.845L647.077 99.8764L647.115 99.68ZM657.975 59.38C664.358 59.38 669.553 61.199 673.152 64.6273C676.749 68.0543 678.775 73.1123 678.775 79.64H679.175C679.175 73.0277 677.121 67.8557 673.428 64.3377C669.737 60.821 664.432 58.98 657.975 58.98V59.38ZM678.775 79.64C678.775 86.3773 676.659 91.692 672.97 95.3224C669.279 98.9534 663.994 100.92 657.615 100.92V101.32C664.076 101.32 669.471 99.3266 673.25 95.6076C677.031 91.888 679.175 86.4627 679.175 79.64H678.775ZM657.615 100.92H644.175V101.32H657.615V100.92ZM644.375 101.12V59.18H643.975V101.12H644.375ZM644.175 59.38H657.975V58.98H644.175V59.38ZM657.915 100.84C663.426 100.84 667.909 98.8699 671.012 95.2578C674.111 91.6494 675.815 86.4233 675.815 79.94H675.415C675.415 86.3567 673.729 91.4806 670.708 94.9972C667.691 98.5101 663.324 100.44 657.915 100.44V100.84ZM675.815 79.94C675.815 73.9585 673.942 68.8387 670.694 65.2116C667.445 61.5828 662.83 59.46 657.375 59.46V59.86C662.72 59.86 667.225 61.9372 670.396 65.4784C673.568 69.0213 675.415 74.0415 675.415 79.94H675.815ZM657.375 59.46H647.115V59.86H657.375V59.46ZM646.915 59.66V99.68H647.315V59.66H646.915ZM647.077 99.8764C648.946 100.238 652.559 100.84 657.915 100.84V100.44C652.591 100.44 649.004 99.8419 647.153 99.4836L647.077 99.8764ZM698.829 56.36L698.957 56.5136L699.078 56.4125L699.008 56.2711L698.829 56.36ZM698.469 56.66L698.331 56.8046L698.46 56.9279L698.597 56.8136L698.469 56.66ZM689.169 47.78V47.58H688.67L689.031 47.9246L689.169 47.78ZM694.569 47.78L694.748 47.6911L694.693 47.58H694.569V47.78ZM697.509 58.46L697.695 58.3876L697.646 58.26H697.509V58.46ZM714.069 101.12V101.32H714.361L714.255 101.048L714.069 101.12ZM710.829 101.12L710.642 101.192L710.691 101.32H710.829V101.12ZM705.489 87.2L705.676 87.1284L705.626 87H705.489V87.2ZM687.429 87.2V87H687.29L687.241 87.1303L687.429 87.2ZM681.849 101.12V101.32H681.984L682.035 101.194L681.849 101.12ZM680.649 101.12L680.464 101.043L680.349 101.32H680.649V101.12ZM687.849 82.88L688.035 82.9536L688.036 82.952L687.849 82.88ZM697.269 58.46V58.26H697.132L697.082 58.388L697.269 58.46ZM687.549 86.66L687.363 86.5863L687.254 86.86H687.549V86.66ZM705.249 86.66V86.86H705.541L705.435 86.5878L705.249 86.66ZM696.429 63.86L696.615 63.7878L696.429 63.3065L696.242 63.7876L696.429 63.86ZM688.929 83.18L689.115 83.2537L689.115 83.2524L688.929 83.18ZM698.701 56.2064L698.341 56.5064L698.597 56.8136L698.957 56.5136L698.701 56.2064ZM698.607 56.5153L689.307 47.6353L689.031 47.9246L698.331 56.8046L698.607 56.5153ZM689.169 47.98H694.569V47.58H689.169V47.98ZM694.39 47.8689L698.65 56.4489L699.008 56.2711L694.748 47.6911L694.39 47.8689ZM697.322 58.5324L713.882 101.192L714.255 101.048L697.695 58.3876L697.322 58.5324ZM714.069 100.92H710.829V101.32H714.069V100.92ZM711.016 101.048L705.676 87.1284L705.302 87.2716L710.642 101.192L711.016 101.048ZM705.489 87H687.429V87.4H705.489V87ZM687.241 87.1303C685.981 90.5218 685.983 90.5167 685.603 91.4037C685.219 92.2982 684.454 94.0848 681.663 101.046L682.035 101.194C684.824 94.2352 685.589 92.4518 685.97 91.5613C686.355 90.6633 686.357 90.6582 687.616 87.2697L687.241 87.1303ZM681.849 100.92H680.649V101.32H681.849V100.92ZM680.833 101.197C683.234 95.4352 685.637 89.0081 688.035 82.9536L687.663 82.8064C685.261 88.8719 682.864 95.2848 680.464 101.043L680.833 101.197ZM688.036 82.952L697.456 58.532L697.082 58.388L687.662 82.808L688.036 82.952ZM697.269 58.66H697.509V58.26H697.269V58.66ZM687.549 86.86H705.249V86.46H687.549V86.86ZM705.435 86.5878L696.615 63.7878L696.242 63.9322L705.062 86.7322L705.435 86.5878ZM696.242 63.7876L688.742 83.1076L689.115 83.2524L696.615 63.9324L696.242 63.7876ZM688.743 83.1063L687.363 86.5863L687.735 86.7337L689.115 83.2537L688.743 83.1063ZM746.289 58.82V58.62H746.089V58.82H746.289ZM747.069 58.82H747.269V58.62H747.069V58.82ZM747.069 101.78V101.98H747.269V101.78H747.069ZM746.709 101.78L746.544 101.893L746.604 101.98H746.709V101.78ZM720.309 63.08L720.475 62.9673L720.109 62.4319V63.08H720.309ZM720.309 101V101.2H720.509V101H720.309ZM719.709 101H719.509V101.2H719.709V101ZM719.709 62.06H719.909V62.0005L719.877 61.9507L719.709 62.06ZM717.909 59.3H717.709V59.3595L717.742 59.4093L717.909 59.3ZM717.909 59.18V58.98H717.709V59.18H717.909ZM721.389 59.18L721.555 59.0679L721.495 58.98H721.389V59.18ZM746.289 95.96L746.124 96.0721L746.489 96.6122V95.96H746.289ZM746.289 59.02H747.069V58.62H746.289V59.02ZM746.869 58.82V101.78H747.269V58.82H746.869ZM747.069 101.58H746.709V101.98H747.069V101.58ZM746.875 101.667L720.475 62.9673L720.144 63.1927L746.544 101.893L746.875 101.667ZM720.109 63.08V101H720.509V63.08H720.109ZM720.309 100.8H719.709V101.2H720.309V100.8ZM719.909 101V62.06H719.509V101H719.909ZM719.877 61.9507L718.077 59.1907L717.742 59.4093L719.542 62.1693L719.877 61.9507ZM718.109 59.3V59.18H717.709V59.3H718.109ZM717.909 59.38H721.389V58.98H717.909V59.38ZM721.224 59.2921L746.124 96.0721L746.455 95.8479L721.555 59.0679L721.224 59.2921ZM746.489 95.96V58.82H746.089V95.96H746.489ZM783.194 59.18V58.98H782.994V59.18H783.194ZM786.194 59.18H786.394V58.98H786.194V59.18ZM786.194 101.12V101.32H786.394V101.12H786.194ZM783.194 101.12H782.994V101.32H783.194V101.12ZM783.194 79.76H783.394V79.56H783.194V79.76ZM759.674 79.76V79.56H759.474V79.76H759.674ZM759.674 101.12V101.32H759.874V101.12H759.674ZM756.734 101.12H756.534V101.32H756.734V101.12ZM756.734 59.18V58.98H756.534V59.18H756.734ZM759.674 59.18H759.874V58.98H759.674V59.18ZM759.674 78.74H759.474V78.94H759.674V78.74ZM783.194 78.74V78.94H783.394V78.74H783.194ZM783.194 59.38H786.194V58.98H783.194V59.38ZM785.994 59.18V101.12H786.394V59.18H785.994ZM786.194 100.92H783.194V101.32H786.194V100.92ZM783.394 101.12V79.76H782.994V101.12H783.394ZM783.194 79.56H759.674V79.96H783.194V79.56ZM759.474 79.76V101.12H759.874V79.76H759.474ZM759.674 100.92H756.734V101.32H759.674V100.92ZM756.934 101.12V59.18H756.534V101.12H756.934ZM756.734 59.38H759.674V58.98H756.734V59.38ZM759.474 59.18V78.74H759.874V59.18H759.474ZM759.674 78.94H783.194V78.54H759.674V78.94ZM783.394 78.74V59.18H782.994V78.74H783.394ZM849.194 93.98L849.336 93.8386L849.181 93.6837L849.04 93.852L849.194 93.98ZM849.494 94.28L849.648 94.408L849.765 94.2677L849.635 94.1386L849.494 94.28ZM848.474 95.36L848.333 95.2186L848.332 95.2191L848.474 95.36ZM818.354 95.36L818.496 95.2191L818.495 95.2186L818.354 95.36ZM818.354 65.18L818.495 65.3214L818.354 65.18ZM848.534 65.18L848.393 65.3214V65.3214L848.534 65.18ZM849.194 65.9L849.332 66.0448L849.461 65.9222L849.354 65.78L849.194 65.9ZM846.674 68.3L846.514 68.42L846.649 68.6L846.812 68.4448L846.674 68.3ZM818.594 65.48L818.735 65.6214L818.594 65.48ZM820.754 92.84L820.896 92.6991L820.896 92.6986L820.754 92.84ZM848.234 95.06L848.375 95.2014L848.382 95.195L848.388 95.188L848.234 95.06ZM849.053 94.1214L849.353 94.4214L849.635 94.1386L849.336 93.8386L849.053 94.1214ZM849.34 94.152C849.047 94.5037 848.694 94.8571 848.333 95.2186L848.615 95.5014C848.974 95.1429 849.341 94.7763 849.648 94.408L849.34 94.152ZM848.332 95.2191C840.13 103.48 826.698 103.48 818.496 95.2191L818.212 95.5009C826.57 103.92 840.258 103.92 848.616 95.5009L848.332 95.2191ZM818.495 95.2186C810.234 86.9567 810.234 73.5833 818.495 65.3214L818.213 65.0386C809.795 73.4567 809.795 87.0833 818.213 95.5014L818.495 95.2186ZM818.495 65.3214C826.757 57.0595 840.131 57.0595 848.393 65.3214L848.675 65.0386C840.257 56.6205 826.631 56.6205 818.213 65.0386L818.495 65.3214ZM848.393 65.3214C848.635 65.564 848.864 65.7936 849.034 66.02L849.354 65.78C849.164 65.5264 848.913 65.276 848.675 65.0386L848.393 65.3214ZM849.056 65.7552L846.536 68.1552L846.812 68.4448L849.332 66.0448L849.056 65.7552ZM846.834 68.18C846.644 67.9264 846.393 67.676 846.155 67.4386L845.873 67.7214C846.115 67.964 846.344 68.1936 846.514 68.42L846.834 68.18ZM846.155 67.4386C837.94 59.2227 825.691 58.1 818.453 65.3386L818.735 65.6214C825.777 58.58 837.768 59.6173 845.873 67.7214L846.155 67.4386ZM818.453 65.3386C811.274 72.5176 812.397 84.766 820.613 92.9814L820.896 92.6986C812.791 84.594 811.755 72.6024 818.735 65.6214L818.453 65.3386ZM820.612 92.9809C828.827 101.256 841.136 102.441 848.375 95.2014L848.093 94.9186C841.052 101.959 829.001 100.864 820.896 92.6991L820.612 92.9809ZM848.388 95.188C848.534 95.0123 848.696 94.8358 848.862 94.6551C849.026 94.4758 849.194 94.2923 849.348 94.108L849.04 93.852C848.894 94.0277 848.732 94.2042 848.567 94.3849C848.402 94.5642 848.234 94.7477 848.08 94.932L848.388 95.188ZM882.627 59.18V58.98H882.427V59.18H882.627ZM885.627 59.18H885.827V58.98H885.627V59.18ZM885.627 101.12V101.32H885.827V101.12H885.627ZM882.627 101.12H882.427V101.32H882.627V101.12ZM882.627 79.76H882.827V79.56H882.627V79.76ZM859.107 79.76V79.56H858.907V79.76H859.107ZM859.107 101.12V101.32H859.307V101.12H859.107ZM856.167 101.12H855.967V101.32H856.167V101.12ZM856.167 59.18V58.98H855.967V59.18H856.167ZM859.107 59.18H859.307V58.98H859.107V59.18ZM859.107 78.74H858.907V78.94H859.107V78.74ZM882.627 78.74V78.94H882.827V78.74H882.627ZM882.627 59.38H885.627V58.98H882.627V59.38ZM885.427 59.18V101.12H885.827V59.18H885.427ZM885.627 100.92H882.627V101.32H885.627V100.92ZM882.827 101.12V79.76H882.427V101.12H882.827ZM882.627 79.56H859.107V79.96H882.627V79.56ZM858.907 79.76V101.12H859.307V79.76H858.907ZM859.107 100.92H856.167V101.32H859.107V100.92ZM856.367 101.12V59.18H855.967V101.12H856.367ZM856.167 59.38H859.107V58.98H856.167V59.38ZM858.907 59.18V78.74H859.307V59.18H858.907ZM859.107 78.94H882.627V78.54H859.107V78.94ZM882.827 78.74V59.18H882.427V78.74H882.827ZM929.628 64.82L929.77 64.6791L929.769 64.6786L929.628 64.82ZM929.568 95L929.426 94.8586L929.426 94.8591L929.568 95ZM899.448 95L899.59 94.8591L899.589 94.8586L899.448 95ZM899.448 64.82L899.306 64.6786L899.448 64.82ZM929.328 94.7L929.186 94.5586L929.328 94.7ZM927.108 67.22L927.25 67.0791L927.249 67.0786L927.108 67.22ZM899.688 65.12L899.546 64.9786L899.546 64.9792L899.688 65.12ZM901.848 92.54L901.706 92.6814L901.848 92.54ZM929.486 64.9609C937.688 73.2228 937.688 86.5966 929.426 94.8586L929.709 95.1414C938.127 86.7234 938.127 73.0972 929.77 64.6791L929.486 64.9609ZM929.426 94.8591C921.224 103.12 907.792 103.12 899.59 94.8591L899.306 95.1409C907.664 103.56 921.352 103.56 929.71 95.1409L929.426 94.8591ZM899.589 94.8586C891.327 86.5967 891.327 73.2233 899.589 64.9614L899.306 64.6786C890.888 73.0967 890.888 86.7233 899.306 95.1414L899.589 94.8586ZM899.589 64.9614C907.851 56.6995 921.224 56.6995 929.486 64.9614L929.769 64.6786C921.351 56.2605 907.724 56.2605 899.306 64.6786L899.589 64.9614ZM929.469 94.8414C936.649 87.6616 935.464 75.3532 927.25 67.0791L926.966 67.3609C935.072 75.5268 936.167 87.5784 929.186 94.5586L929.469 94.8414ZM927.249 67.0786C919.033 58.8627 906.785 57.74 899.546 64.9786L899.829 65.2614C906.871 58.22 918.862 59.2573 926.966 67.3614L927.249 67.0786ZM899.546 64.9792C892.368 72.2178 893.491 84.4656 901.706 92.6814L901.989 92.3986C893.885 84.2944 892.848 72.3022 899.83 65.2608L899.546 64.9792ZM901.706 92.6814C909.921 100.896 922.23 102.081 929.469 94.8414L929.186 94.5586C922.146 101.599 910.094 100.504 901.989 92.3986L901.706 92.6814ZM996.733 93.98L996.875 93.8386L996.72 93.6837L996.579 93.852L996.733 93.98ZM997.033 94.28L997.187 94.408L997.304 94.2677L997.175 94.1386L997.033 94.28ZM996.013 95.36L995.872 95.2186L995.871 95.2191L996.013 95.36ZM965.893 95.36L966.035 95.2191L966.035 95.2186L965.893 95.36ZM965.893 65.18L966.035 65.3214L965.893 65.18ZM996.073 65.18L995.932 65.3214V65.3214L996.073 65.18ZM996.733 65.9L996.871 66.0448L997 65.9222L996.893 65.78L996.733 65.9ZM994.213 68.3L994.053 68.42L994.188 68.6L994.351 68.4448L994.213 68.3ZM966.133 65.48L966.275 65.6214L966.133 65.48ZM968.293 92.84L968.435 92.6991L968.435 92.6986L968.293 92.84ZM995.773 95.06L995.915 95.2014L995.921 95.195L995.927 95.188L995.773 95.06ZM996.592 94.1214L996.892 94.4214L997.175 94.1386L996.875 93.8386L996.592 94.1214ZM996.879 94.152C996.586 94.5037 996.233 94.8571 995.872 95.2186L996.155 95.5014C996.513 95.1429 996.88 94.7763 997.187 94.408L996.879 94.152ZM995.871 95.2191C987.669 103.48 974.237 103.48 966.035 95.2191L965.751 95.5009C974.109 103.92 987.797 103.92 996.155 95.5009L995.871 95.2191ZM966.035 95.2186C957.773 86.9567 957.773 73.5833 966.035 65.3214L965.752 65.0386C957.334 73.4567 957.334 87.0833 965.752 95.5014L966.035 95.2186ZM966.035 65.3214C974.296 57.0595 987.67 57.0595 995.932 65.3214L996.215 65.0386C987.796 56.6205 974.17 56.6205 965.752 65.0386L966.035 65.3214ZM995.932 65.3214C996.174 65.564 996.403 65.7936 996.573 66.02L996.893 65.78C996.703 65.5264 996.452 65.276 996.215 65.0386L995.932 65.3214ZM996.595 65.7552L994.075 68.1552L994.351 68.4448L996.871 66.0448L996.595 65.7552ZM994.373 68.18C994.183 67.9264 993.932 67.676 993.695 67.4386L993.412 67.7214C993.654 67.964 993.883 68.1936 994.053 68.42L994.373 68.18ZM993.695 67.4386C985.479 59.2227 973.23 58.1 965.992 65.3386L966.275 65.6214C973.316 58.58 985.308 59.6173 993.412 67.7214L993.695 67.4386ZM965.992 65.3386C958.813 72.5176 959.936 84.766 968.152 92.9814L968.435 92.6986C960.33 84.594 959.294 72.6024 966.275 65.6214L965.992 65.3386ZM968.151 92.9809C976.366 101.256 988.675 102.441 995.915 95.2014L995.632 94.9186C988.591 101.959 976.54 100.864 968.435 92.6991L968.151 92.9809ZM995.927 95.188C996.073 95.0123 996.235 94.8358 996.401 94.6551C996.565 94.4758 996.733 94.2923 996.887 94.108L996.579 93.852C996.433 94.0277 996.271 94.2042 996.106 94.3849C995.941 94.5642 995.773 94.7477 995.62 94.932L995.927 95.188ZM1030.17 59.18V58.98H1029.97V59.18H1030.17ZM1033.17 59.18H1033.37V58.98H1033.17V59.18ZM1033.17 101.12V101.32H1033.37V101.12H1033.17ZM1030.17 101.12H1029.97V101.32H1030.17V101.12ZM1030.17 79.76H1030.37V79.56H1030.17V79.76ZM1006.65 79.76V79.56H1006.45V79.76H1006.65ZM1006.65 101.12V101.32H1006.85V101.12H1006.65ZM1003.71 101.12H1003.51V101.32H1003.71V101.12ZM1003.71 59.18V58.98H1003.51V59.18H1003.71ZM1006.65 59.18H1006.85V58.98H1006.65V59.18ZM1006.65 78.74H1006.45V78.94H1006.65V78.74ZM1030.17 78.74V78.94H1030.37V78.74H1030.17ZM1030.17 59.38H1033.17V58.98H1030.17V59.38ZM1032.97 59.18V101.12H1033.37V59.18H1032.97ZM1033.17 100.92H1030.17V101.32H1033.17V100.92ZM1030.37 101.12V79.76H1029.97V101.12H1030.37ZM1030.17 79.56H1006.65V79.96H1030.17V79.56ZM1006.45 79.76V101.12H1006.85V79.76H1006.45ZM1006.65 100.92H1003.71V101.32H1006.65V100.92ZM1003.91 101.12V59.18H1003.51V101.12H1003.91ZM1003.71 59.38H1006.65V58.98H1003.71V59.38ZM1006.45 59.18V78.74H1006.85V59.18H1006.45ZM1006.65 78.94H1030.17V78.54H1006.65V78.94ZM1030.37 78.74V59.18H1029.97V78.74H1030.37ZM1065.17 47.78L1065.31 47.9246L1065.67 47.58H1065.17V47.78ZM1055.87 56.66L1055.75 56.8227L1055.89 56.9189L1056.01 56.8046L1055.87 56.66ZM1055.45 56.36L1055.27 56.2711L1055.19 56.4237L1055.33 56.5227L1055.45 56.36ZM1059.71 47.78V47.58H1059.58L1059.53 47.6911L1059.71 47.78ZM1069.91 59.06V58.86H1069.71V59.06H1069.91ZM1070.69 59.06H1070.89V58.86H1070.69V59.06ZM1042.43 59.12V58.92H1042.23V59.12H1042.43ZM1045.37 59.12H1045.57V58.92H1045.37V59.12ZM1065.03 47.6353L1055.73 56.5153L1056.01 56.8046L1065.31 47.9246L1065.03 47.6353ZM1055.98 56.4973L1055.56 56.1973L1055.33 56.5227L1055.75 56.8227L1055.98 56.4973ZM1055.63 56.4489L1059.89 47.8689L1059.53 47.6911L1055.27 56.2711L1055.63 56.4489ZM1059.71 47.98H1065.17V47.58H1059.71V47.98ZM1069.91 59.26H1070.69V58.86H1069.91V59.26ZM1070.49 59.06V87.14H1070.89V59.06H1070.49ZM1070.49 87.14C1070.49 91.8195 1069.32 95.4224 1067.02 97.8551C1064.73 100.286 1061.26 101.58 1056.59 101.58V101.98C1061.33 101.98 1064.92 100.664 1067.31 98.1299C1069.71 95.5976 1070.89 91.8805 1070.89 87.14H1070.49ZM1056.59 101.58C1051.97 101.58 1048.49 100.33 1046.16 97.9574C1043.83 95.5842 1042.63 92.057 1042.63 87.44H1042.23C1042.23 92.123 1043.45 95.7658 1045.88 98.2376C1048.3 100.71 1051.9 101.98 1056.59 101.98V101.58ZM1042.63 87.44V59.12H1042.23V87.44H1042.63ZM1042.43 59.32H1045.37V58.92H1042.43V59.32ZM1045.17 59.12V87.14H1045.57V59.12H1045.17ZM1045.17 87.14C1045.17 91.4585 1046.19 94.7999 1048.26 97.0625C1050.34 99.3283 1053.43 100.48 1057.49 100.48V100.08C1053.5 100.08 1050.54 98.9517 1048.56 96.7925C1046.58 94.6301 1045.57 91.4015 1045.57 87.14H1045.17ZM1057.49 100.48C1061.34 100.48 1064.5 99.3426 1066.7 97.0975C1068.9 94.8527 1070.11 91.5266 1070.11 87.2H1069.71C1069.71 91.4534 1068.52 94.6673 1066.41 96.8176C1064.31 98.9674 1061.26 100.08 1057.49 100.08V100.48ZM1070.11 87.2V59.06H1069.71V87.2H1070.11ZM1106.35 58.82V58.62H1106.15V58.82H1106.35ZM1107.13 58.82H1107.33V58.62H1107.13V58.82ZM1107.13 101.78V101.98H1107.33V101.78H1107.13ZM1106.77 101.78L1106.6 101.893L1106.66 101.98H1106.77V101.78ZM1080.37 63.08L1080.53 62.9673L1080.17 62.4319V63.08H1080.37ZM1080.37 101V101.2H1080.57V101H1080.37ZM1079.77 101H1079.57V101.2H1079.77V101ZM1079.77 62.06H1079.97V62.0005L1079.94 61.9507L1079.77 62.06ZM1077.97 59.3H1077.77V59.3595L1077.8 59.4093L1077.97 59.3ZM1077.97 59.18V58.98H1077.77V59.18H1077.97ZM1081.45 59.18L1081.61 59.0679L1081.55 58.98H1081.45V59.18ZM1106.35 95.96L1106.18 96.0721L1106.55 96.6122V95.96H1106.35ZM1106.35 59.02H1107.13V58.62H1106.35V59.02ZM1106.93 58.82V101.78H1107.33V58.82H1106.93ZM1107.13 101.58H1106.77V101.98H1107.13V101.58ZM1106.93 101.667L1080.53 62.9673L1080.2 63.1927L1106.6 101.893L1106.93 101.667ZM1080.17 63.08V101H1080.57V63.08H1080.17ZM1080.37 100.8H1079.77V101.2H1080.37V100.8ZM1079.97 101V62.06H1079.57V101H1079.97ZM1079.94 61.9507L1078.14 59.1907L1077.8 59.4093L1079.6 62.1693L1079.94 61.9507ZM1078.17 59.3V59.18H1077.77V59.3H1078.17ZM1077.97 59.38H1081.45V58.98H1077.97V59.38ZM1081.28 59.2921L1106.18 96.0721L1106.51 95.8479L1081.61 59.0679L1081.28 59.2921ZM1106.55 95.96V58.82H1106.15V95.96H1106.55ZM1149.07 81.92L1149.05 81.721L1148.87 81.739V81.92H1149.07ZM1152.07 81.62H1152.27V81.399L1152.05 81.421L1152.07 81.62ZM1152.07 101V101.2H1152.27V101H1152.07ZM1149.07 101H1148.87V101.2H1149.07V101ZM1149.07 97.22H1149.27V96.809L1148.95 97.0626L1149.07 97.22ZM1120.93 95.48L1121.07 95.3386L1120.93 95.48ZM1120.93 65.3L1120.79 65.1586L1120.93 65.3ZM1151.77 66.02L1151.91 66.1648L1152.04 66.0422L1151.93 65.9L1151.77 66.02ZM1149.25 68.42L1149.09 68.54L1149.23 68.72L1149.39 68.5648L1149.25 68.42ZM1148.59 67.7L1148.45 67.8414L1148.59 67.7ZM1121.17 65.6L1121.31 65.7414L1121.17 65.6ZM1123.33 92.96L1123.19 93.1014L1123.33 92.96ZM1149.07 96.62L1149.19 96.7794L1149.27 96.7193V96.62H1149.07ZM1149.09 82.119L1152.09 81.819L1152.05 81.421L1149.05 81.721L1149.09 82.119ZM1151.87 81.62V101H1152.27V81.62H1151.87ZM1152.07 100.8H1149.07V101.2H1152.07V100.8ZM1149.27 101V97.22H1148.87V101H1149.27ZM1148.95 97.0626C1140.69 103.541 1128.68 102.947 1121.07 95.3386L1120.79 95.6214C1128.54 103.373 1140.78 103.979 1149.2 97.3774L1148.95 97.0626ZM1121.07 95.3386C1112.81 87.0767 1112.81 73.7033 1121.07 65.4414L1120.79 65.1586C1112.37 73.5767 1112.37 87.2033 1120.79 95.6214L1121.07 95.3386ZM1121.07 65.4414C1129.34 57.1795 1142.71 57.1795 1150.97 65.4414L1151.25 65.1586C1142.84 56.7405 1129.21 56.7405 1120.79 65.1586L1121.07 65.4414ZM1150.97 65.4414C1151.21 65.684 1151.44 65.9136 1151.61 66.14L1151.93 65.9C1151.74 65.6464 1151.49 65.396 1151.25 65.1586L1150.97 65.4414ZM1151.63 65.8752L1149.11 68.2752L1149.39 68.5648L1151.91 66.1648L1151.63 65.8752ZM1149.41 68.3C1149.22 68.0464 1148.97 67.796 1148.73 67.5586L1148.45 67.8414C1148.69 68.084 1148.92 68.3136 1149.09 68.54L1149.41 68.3ZM1148.73 67.5586C1140.52 59.3427 1128.27 58.22 1121.03 65.4586L1121.31 65.7414C1128.35 58.7 1140.35 59.7373 1148.45 67.8414L1148.73 67.5586ZM1121.03 65.4586C1113.85 72.6376 1114.98 84.886 1123.19 93.1014L1123.47 92.8186C1115.37 84.714 1114.33 72.7224 1121.31 65.7414L1121.03 65.4586ZM1123.19 93.1014C1130.8 100.713 1141.89 102.315 1149.19 96.7794L1148.95 96.4606C1141.85 101.845 1130.98 100.327 1123.47 92.8186L1123.19 93.1014ZM1149.27 96.62V81.92H1148.87V96.62H1149.27ZM1215.68 59.18L1215.88 59.1615L1215.87 58.98H1215.68V59.18ZM1219.58 101.12V101.32H1219.8L1219.78 101.101L1219.58 101.12ZM1216.52 101.12L1216.33 101.139L1216.34 101.32H1216.52V101.12ZM1212.86 62.12L1213.06 62.1013L1212.68 62.045L1212.86 62.12ZM1198.16 98.48V98.68H1198.3L1198.35 98.555L1198.16 98.48ZM1197.92 98.48L1197.74 98.5607L1197.79 98.68H1197.92V98.48ZM1181.84 62L1182.03 61.9193L1181.73 61.2348L1181.65 61.9786L1181.84 62ZM1177.64 101V101.2H1177.82L1177.84 101.021L1177.64 101ZM1177.04 101L1176.85 100.979L1176.82 101.2H1177.04V101ZM1181.3 60.86L1181.5 60.8811L1181.51 60.8297L1181.49 60.7821L1181.3 60.86ZM1180.64 59.3H1180.44V59.3406L1180.46 59.3779L1180.64 59.3ZM1180.64 59.18V58.98H1180.44V59.18H1180.64ZM1183.82 59.18L1184.01 59.099L1183.95 58.98H1183.82V59.18ZM1199.24 93.98L1199.06 94.061L1199.25 94.4923L1199.43 94.0551L1199.24 93.98ZM1213.34 59.18V58.98H1213.21L1213.16 59.1049L1213.34 59.18ZM1215.49 59.1985L1219.39 101.139L1219.78 101.101L1215.88 59.1615L1215.49 59.1985ZM1219.58 100.92H1216.52V101.32H1219.58V100.92ZM1216.72 101.101L1213.06 62.1013L1212.67 62.1387L1216.33 101.139L1216.72 101.101ZM1212.68 62.045L1197.98 98.405L1198.35 98.555L1213.05 62.195L1212.68 62.045ZM1198.16 98.28H1197.92V98.68H1198.16V98.28ZM1198.11 98.3993L1182.03 61.9193L1181.66 62.0807L1197.74 98.5607L1198.11 98.3993ZM1181.65 61.9786L1177.45 100.979L1177.84 101.021L1182.04 62.0214L1181.65 61.9786ZM1177.64 100.8H1177.04V101.2H1177.64V100.8ZM1177.24 101.021L1181.5 60.8811L1181.11 60.8389L1176.85 100.979L1177.24 101.021ZM1181.49 60.7821L1180.83 59.2221L1180.46 59.3779L1181.12 60.9379L1181.49 60.7821ZM1180.84 59.3V59.18H1180.44V59.3H1180.84ZM1180.64 59.38H1183.82V58.98H1180.64V59.38ZM1183.64 59.261L1199.06 94.061L1199.43 93.899L1184.01 59.099L1183.64 59.261ZM1199.43 94.0551L1213.53 59.2551L1213.16 59.1049L1199.06 93.9049L1199.43 94.0551ZM1213.34 59.38H1215.68V58.98H1213.34V59.38ZM1230.29 56.36L1230.42 56.5136L1230.54 56.4131L1230.47 56.2721L1230.29 56.36ZM1229.93 56.66L1229.79 56.8042L1229.92 56.9283L1230.06 56.8136L1229.93 56.66ZM1220.69 47.78V47.58H1220.19L1220.55 47.9242L1220.69 47.78ZM1226.09 47.78L1226.27 47.6921L1226.21 47.58H1226.09V47.78ZM1230.71 101.12V101.32H1230.91V101.12H1230.71ZM1227.71 101.12H1227.51V101.32H1227.71V101.12ZM1227.71 59.18V58.98H1227.51V59.18H1227.71ZM1230.71 59.18H1230.91V58.98H1230.71V59.18ZM1230.16 56.2064L1229.8 56.5064L1230.06 56.8136L1230.42 56.5136L1230.16 56.2064ZM1230.07 56.5158L1220.83 47.6358L1220.55 47.9242L1229.79 56.8042L1230.07 56.5158ZM1220.69 47.98H1226.09V47.58H1220.69V47.98ZM1225.91 47.8679L1230.11 56.4479L1230.47 56.2721L1226.27 47.6921L1225.91 47.8679ZM1230.71 100.92H1227.71V101.32H1230.71V100.92ZM1227.91 101.12V59.18H1227.51V101.12H1227.91ZM1227.71 59.38H1230.71V58.98H1227.71V59.38ZM1230.51 59.18V101.12H1230.91V59.18H1230.51ZM1267.25 58.82V58.62H1267.05V58.82H1267.25ZM1268.03 58.82H1268.23V58.62H1268.03V58.82ZM1268.03 101.78V101.98H1268.23V101.78H1268.03ZM1267.67 101.78L1267.5 101.893L1267.56 101.98H1267.67V101.78ZM1241.27 63.08L1241.43 62.9673L1241.07 62.4319V63.08H1241.27ZM1241.27 101V101.2H1241.47V101H1241.27ZM1240.67 101H1240.47V101.2H1240.67V101ZM1240.67 62.06H1240.87V62.0005L1240.83 61.9507L1240.67 62.06ZM1238.87 59.3H1238.67V59.3595L1238.7 59.4093L1238.87 59.3ZM1238.87 59.18V58.98H1238.67V59.18H1238.87ZM1242.35 59.18L1242.51 59.0679L1242.45 58.98H1242.35V59.18ZM1267.25 95.96L1267.08 96.0721L1267.45 96.6122V95.96H1267.25ZM1267.25 59.02H1268.03V58.62H1267.25V59.02ZM1267.83 58.82V101.78H1268.23V58.82H1267.83ZM1268.03 101.58H1267.67V101.98H1268.03V101.58ZM1267.83 101.667L1241.43 62.9673L1241.1 63.1927L1267.5 101.893L1267.83 101.667ZM1241.07 63.08V101H1241.47V63.08H1241.07ZM1241.27 100.8H1240.67V101.2H1241.27V100.8ZM1240.87 101V62.06H1240.47V101H1240.87ZM1240.83 61.9507L1239.03 59.1907L1238.7 59.4093L1240.5 62.1693L1240.83 61.9507ZM1239.07 59.3V59.18H1238.67V59.3H1239.07ZM1238.87 59.38H1242.35V58.98H1238.87V59.38ZM1242.18 59.2921L1267.08 96.0721L1267.41 95.8479L1242.51 59.0679L1242.18 59.2921ZM1267.45 95.96V58.82H1267.05V95.96H1267.45ZM1304.15 59.18V58.98H1303.95V59.18H1304.15ZM1307.15 59.18H1307.35V58.98H1307.15V59.18ZM1307.15 101.12V101.32H1307.35V101.12H1307.15ZM1304.15 101.12H1303.95V101.32H1304.15V101.12ZM1304.15 79.76H1304.35V79.56H1304.15V79.76ZM1280.63 79.76V79.56H1280.43V79.76H1280.63ZM1280.63 101.12V101.32H1280.83V101.12H1280.63ZM1277.69 101.12H1277.49V101.32H1277.69V101.12ZM1277.69 59.18V58.98H1277.49V59.18H1277.69ZM1280.63 59.18H1280.83V58.98H1280.63V59.18ZM1280.63 78.74H1280.43V78.94H1280.63V78.74ZM1304.15 78.74V78.94H1304.35V78.74H1304.15ZM1304.15 59.38H1307.15V58.98H1304.15V59.38ZM1306.95 59.18V101.12H1307.35V59.18H1306.95ZM1307.15 100.92H1304.15V101.32H1307.15V100.92ZM1304.35 101.12V79.76H1303.95V101.12H1304.35ZM1304.15 79.56H1280.63V79.96H1304.15V79.56ZM1280.43 79.76V101.12H1280.83V79.76H1280.43ZM1280.63 100.92H1277.69V101.32H1280.63V100.92ZM1277.89 101.12V59.18H1277.49V101.12H1277.89ZM1277.69 59.38H1280.63V58.98H1277.69V59.38ZM1280.43 59.18V78.74H1280.83V59.18H1280.43ZM1280.63 78.94H1304.15V78.54H1280.63V78.94ZM1304.35 78.74V59.18H1303.95V78.74H1304.35ZM1315.03 75.74L1315.17 75.5986L1315.03 75.74ZM1314.61 75.32L1314.75 75.1786L1314.61 75.32ZM1314.61 72.86L1314.75 73.0014L1314.61 72.86ZM1315.03 72.44L1315.17 72.5814L1315.03 72.44ZM1317.49 72.44L1317.35 72.5814L1317.49 72.44ZM1317.91 72.86L1317.77 73.0014L1317.91 72.86ZM1317.91 75.32L1317.77 75.1786L1317.91 75.32ZM1317.49 75.74L1317.35 75.5986L1317.49 75.74ZM1317.91 97.28L1318.06 97.1449L1318.05 97.136L1318.04 97.1281L1317.91 97.28ZM1317.91 99.8L1318.04 99.9519L1318.05 99.944L1318.06 99.9351L1317.91 99.8ZM1317.49 100.16L1317.36 100.008L1317.35 100.016L1317.34 100.025L1317.49 100.16ZM1315.03 100.16L1315.18 100.025L1315.17 100.016L1315.16 100.008L1315.03 100.16ZM1314.61 99.8L1314.46 99.9351L1314.47 99.944L1314.48 99.9519L1314.61 99.8ZM1314.61 97.28L1314.48 97.1281L1314.47 97.136L1314.46 97.1449L1314.61 97.28ZM1315.03 96.92L1315.16 97.0718L1315.17 97.064L1315.18 97.0551L1315.03 96.92ZM1317.49 96.92L1317.34 97.0551L1317.35 97.064L1317.36 97.0718L1317.49 96.92ZM1315.17 75.5986L1314.75 75.1786L1314.47 75.4614L1314.89 75.8814L1315.17 75.5986ZM1314.75 75.1786C1314.17 74.5967 1314.17 73.5833 1314.75 73.0014L1314.47 72.7186C1313.73 73.4567 1313.73 74.7233 1314.47 75.4614L1314.75 75.1786ZM1314.75 73.0014L1315.17 72.5814L1314.89 72.2986L1314.47 72.7186L1314.75 73.0014ZM1315.17 72.5814C1315.75 71.9995 1316.77 71.9995 1317.35 72.5814L1317.63 72.2986C1316.89 71.5605 1315.63 71.5605 1314.89 72.2986L1315.17 72.5814ZM1317.35 72.5814L1317.77 73.0014L1318.05 72.7186L1317.63 72.2986L1317.35 72.5814ZM1317.77 73.0014C1318.35 73.5833 1318.35 74.5967 1317.77 75.1786L1318.05 75.4614C1318.79 74.7233 1318.79 73.4567 1318.05 72.7186L1317.77 73.0014ZM1317.77 75.1786L1317.35 75.5986L1317.63 75.8814L1318.05 75.4614L1317.77 75.1786ZM1317.35 75.5986C1316.77 76.1805 1315.75 76.1805 1315.17 75.5986L1314.89 75.8814C1315.63 76.6195 1316.89 76.6195 1317.63 75.8814L1317.35 75.5986ZM1317.76 97.4151C1318.35 98.0587 1318.35 99.0213 1317.76 99.6649L1318.06 99.9351C1318.79 99.1387 1318.79 97.9413 1318.06 97.1449L1317.76 97.4151ZM1317.78 99.6481L1317.36 100.008L1317.62 100.312L1318.04 99.9519L1317.78 99.6481ZM1317.34 100.025C1316.76 100.658 1315.76 100.658 1315.18 100.025L1314.88 100.295C1315.62 101.102 1316.9 101.102 1317.64 100.295L1317.34 100.025ZM1315.16 100.008L1314.74 99.6481L1314.48 99.9519L1314.9 100.312L1315.16 100.008ZM1314.76 99.6649C1314.17 99.0213 1314.17 98.0587 1314.76 97.4151L1314.46 97.1449C1313.73 97.9413 1313.73 99.1387 1314.46 99.9351L1314.76 99.6649ZM1314.74 97.4319L1315.16 97.0718L1314.9 96.7682L1314.48 97.1281L1314.74 97.4319ZM1315.18 97.0551C1315.76 96.4216 1316.76 96.4216 1317.34 97.0551L1317.64 96.7849C1316.9 95.9784 1315.62 95.9784 1314.88 96.7849L1315.18 97.0551ZM1317.36 97.0718L1317.78 97.4319L1318.04 97.1281L1317.62 96.7682L1317.36 97.0718Z" fill="#4C5637" mask="url(#path-1-outside-1_46_57)"/>
<mask id="path-3-outside-2_46_57" maskUnits="userSpaceOnUse" x="59" y="48" width="7" height="14" fill="black">
<rect fill="white" x="59" y="48" width="7" height="14"/>
<path d="M63.38 49.44C64.82 50.7 65.54 52.32 65.54 54C65.54 56.7 63.8 59.64 60.5 61.44L60.26 61.02C62.24 59.64 63.2 58.02 63.2 56.34C63.2 54.9 62.54 53.46 61.1 52.14C60.38 51.42 60.32 50.28 61.04 49.56C61.7 48.96 62.72 48.84 63.38 49.44Z"/>
</mask>
<path d="M63.38 49.44C64.82 50.7 65.54 52.32 65.54 54C65.54 56.7 63.8 59.64 60.5 61.44L60.26 61.02C62.24 59.64 63.2 58.02 63.2 56.34C63.2 54.9 62.54 53.46 61.1 52.14C60.38 51.42 60.32 50.28 61.04 49.56C61.7 48.96 62.72 48.84 63.38 49.44Z" fill="#4C5637"/>
<path d="M63.38 49.44L63.2454 49.588L63.2483 49.5905L63.38 49.44ZM60.5 61.44L60.3264 61.5392L60.4236 61.7095L60.5958 61.6156L60.5 61.44ZM60.26 61.02L60.1456 60.8559L59.9956 60.9605L60.0864 61.1192L60.26 61.02ZM61.1 52.14L60.9584 52.2816L60.9649 52.2874L61.1 52.14ZM61.04 49.56L60.9053 49.4118L60.8986 49.4186L61.04 49.56ZM63.2483 49.5905C64.6471 50.8145 65.34 52.3806 65.34 54H65.74C65.74 52.2594 64.9929 50.5855 63.5117 49.2895L63.2483 49.5905ZM65.34 54C65.34 56.614 63.6521 59.4929 60.4042 61.2644L60.5958 61.6156C63.9479 59.7871 65.74 56.786 65.74 54H65.34ZM60.6736 61.3408L60.4336 60.9208L60.0864 61.1192L60.3264 61.5392L60.6736 61.3408ZM60.3744 61.1841C62.3887 59.7802 63.4 58.1059 63.4 56.34H63C63 57.9341 62.0913 59.4998 60.1456 60.8559L60.3744 61.1841ZM63.4 56.34C63.4 54.8326 62.7073 53.3421 61.2351 51.9926L60.9649 52.2874C62.3727 53.5779 63 54.9674 63 56.34H63.4ZM61.2414 51.9986C60.5908 51.3479 60.548 50.3349 61.1814 49.7014L60.8986 49.4186C60.092 50.2251 60.1692 51.4921 60.9586 52.2814L61.2414 51.9986ZM61.1745 49.708C61.778 49.1594 62.68 49.0739 63.2455 49.588L63.5145 49.292C62.76 48.6061 61.622 48.7606 60.9055 49.412L61.1745 49.708Z" fill="#4C5637" mask="url(#path-3-outside-2_46_57)"/>
<mask id="path-5-outside-3_46_57" maskUnits="userSpaceOnUse" x="345" y="48" width="7" height="14" fill="black">
<rect fill="white" x="345" y="48" width="7" height="14"/>
<path d="M349.38 49.44C350.82 50.7 351.54 52.32 351.54 54C351.54 56.7 349.8 59.64 346.5 61.44L346.26 61.02C348.24 59.64 349.2 58.02 349.2 56.34C349.2 54.9 348.54 53.46 347.1 52.14C346.38 51.42 346.32 50.28 347.04 49.56C347.7 48.96 348.72 48.84 349.38 49.44Z"/>
</mask>
<path d="M349.38 49.44C350.82 50.7 351.54 52.32 351.54 54C351.54 56.7 349.8 59.64 346.5 61.44L346.26 61.02C348.24 59.64 349.2 58.02 349.2 56.34C349.2 54.9 348.54 53.46 347.1 52.14C346.38 51.42 346.32 50.28 347.04 49.56C347.7 48.96 348.72 48.84 349.38 49.44Z" fill="#4C5637"/>
<path d="M349.38 49.44L349.245 49.588L349.248 49.5905L349.38 49.44ZM346.5 61.44L346.326 61.5392L346.424 61.7095L346.596 61.6156L346.5 61.44ZM346.26 61.02L346.146 60.8559L345.996 60.9605L346.086 61.1192L346.26 61.02ZM347.1 52.14L346.958 52.2816L346.965 52.2874L347.1 52.14ZM347.04 49.56L346.905 49.4118L346.899 49.4186L347.04 49.56ZM349.248 49.5905C350.647 50.8145 351.34 52.3806 351.34 54H351.74C351.74 52.2594 350.993 50.5855 349.512 49.2895L349.248 49.5905ZM351.34 54C351.34 56.614 349.652 59.4929 346.404 61.2644L346.596 61.6156C349.948 59.7871 351.74 56.786 351.74 54H351.34ZM346.674 61.3408L346.434 60.9208L346.086 61.1192L346.326 61.5392L346.674 61.3408ZM346.374 61.1841C348.389 59.7802 349.4 58.1059 349.4 56.34H349C349 57.9341 348.091 59.4998 346.146 60.8559L346.374 61.1841ZM349.4 56.34C349.4 54.8326 348.707 53.3421 347.235 51.9926L346.965 52.2874C348.373 53.5779 349 54.9674 349 56.34H349.4ZM347.241 51.9986C346.591 51.3479 346.548 50.3349 347.181 49.7014L346.899 49.4186C346.092 50.2251 346.169 51.4921 346.959 52.2814L347.241 51.9986ZM347.175 49.708C347.778 49.1594 348.68 49.0739 349.245 49.588L349.515 49.292C348.76 48.6061 347.622 48.7606 346.905 49.412L347.175 49.708Z" fill="#4C5637" mask="url(#path-5-outside-3_46_57)"/>
<mask id="path-7-outside-4_46_57" maskUnits="userSpaceOnUse" x="330" y="38" width="7" height="13" fill="black">
<rect fill="white" x="330" y="38" width="7" height="13"/>
<path d="M334.015 38.82C335.335 39.975 335.995 41.46 335.995 43C335.995 45.475 334.4 48.17 331.375 49.82L331.155 49.435C332.97 48.17 333.85 46.685 333.85 45.145C333.85 43.825 333.245 42.505 331.925 41.295C331.265 40.635 331.21 39.59 331.87 38.93C332.475 38.38 333.41 38.27 334.015 38.82Z"/>
</mask>
<path d="M334.015 38.82C335.335 39.975 335.995 41.46 335.995 43C335.995 45.475 334.4 48.17 331.375 49.82L331.155 49.435C332.97 48.17 333.85 46.685 333.85 45.145C333.85 43.825 333.245 42.505 331.925 41.295C331.265 40.635 331.21 39.59 331.87 38.93C332.475 38.38 333.41 38.27 334.015 38.82Z" fill="#4C5637"/>
<path d="M334.015 38.82L333.88 38.968L333.883 38.9705L334.015 38.82ZM331.375 49.82L331.201 49.9192L331.299 50.0895L331.471 49.9956L331.375 49.82ZM331.155 49.435L331.041 49.2709L330.891 49.3755L330.981 49.5342L331.155 49.435ZM331.925 41.295L331.783 41.4366L331.79 41.4424L331.925 41.295ZM331.87 38.93L331.735 38.7818L331.729 38.7886L331.87 38.93ZM333.883 38.9705C335.162 40.0895 335.795 41.5206 335.795 43H336.195C336.195 41.3994 335.508 39.8605 334.147 38.6695L333.883 38.9705ZM335.795 43C335.795 45.389 334.252 48.0229 331.279 49.6444L331.471 49.9956C334.548 48.3171 336.195 45.561 336.195 43H335.795ZM331.549 49.7208L331.329 49.3358L330.981 49.5342L331.201 49.9192L331.549 49.7208ZM331.269 49.5991C333.119 48.3102 334.05 46.7709 334.05 45.145H333.65C333.65 46.5991 332.821 48.0298 331.041 49.2709L331.269 49.5991ZM334.05 45.145C334.05 43.7576 333.412 42.3871 332.06 41.1476L331.79 41.4424C333.078 42.6229 333.65 43.8924 333.65 45.145H334.05ZM332.066 41.1536C331.476 40.5629 331.438 39.6449 332.011 39.0714L331.729 38.7886C330.982 39.5351 331.054 40.7071 331.784 41.4364L332.066 41.1536ZM332.005 39.078C332.553 38.5794 333.37 38.5039 333.88 38.968L334.15 38.672C333.45 38.0361 332.397 38.1806 331.735 38.782L332.005 39.078Z" fill="#4C5637" mask="url(#path-7-outside-4_46_57)"/>
<mask id="path-9-outside-5_46_57" maskUnits="userSpaceOnUse" x="441" y="38" width="7" height="13" fill="black">
<rect fill="white" x="441" y="38" width="7" height="13"/>
<path d="M445.015 38.82C446.335 39.975 446.995 41.46 446.995 43C446.995 45.475 445.4 48.17 442.375 49.82L442.155 49.435C443.97 48.17 444.85 46.685 444.85 45.145C444.85 43.825 444.245 42.505 442.925 41.295C442.265 40.635 442.21 39.59 442.87 38.93C443.475 38.38 444.41 38.27 445.015 38.82Z"/>
</mask>
<path d="M445.015 38.82C446.335 39.975 446.995 41.46 446.995 43C446.995 45.475 445.4 48.17 442.375 49.82L442.155 49.435C443.97 48.17 444.85 46.685 444.85 45.145C444.85 43.825 444.245 42.505 442.925 41.295C442.265 40.635 442.21 39.59 442.87 38.93C443.475 38.38 444.41 38.27 445.015 38.82Z" fill="#4C5637"/>
<path d="M445.015 38.82L444.88 38.968L444.883 38.9705L445.015 38.82ZM442.375 49.82L442.201 49.9192L442.299 50.0895L442.471 49.9956L442.375 49.82ZM442.155 49.435L442.041 49.2709L441.891 49.3755L441.981 49.5342L442.155 49.435ZM442.925 41.295L442.783 41.4366L442.79 41.4424L442.925 41.295ZM442.87 38.93L442.735 38.7818L442.729 38.7886L442.87 38.93ZM444.883 38.9705C446.162 40.0895 446.795 41.5206 446.795 43H447.195C447.195 41.3994 446.508 39.8605 445.147 38.6695L444.883 38.9705ZM446.795 43C446.795 45.389 445.252 48.0229 442.279 49.6444L442.471 49.9956C445.548 48.3171 447.195 45.561 447.195 43H446.795ZM442.549 49.7208L442.329 49.3358L441.981 49.5342L442.201 49.9192L442.549 49.7208ZM442.269 49.5991C444.119 48.3102 445.05 46.7709 445.05 45.145H444.65C444.65 46.5991 443.821 48.0298 442.041 49.2709L442.269 49.5991ZM445.05 45.145C445.05 43.7576 444.412 42.3871 443.06 41.1476L442.79 41.4424C444.078 42.6229 444.65 43.8924 444.65 45.145H445.05ZM443.066 41.1536C442.476 40.5629 442.438 39.6449 443.011 39.0714L442.729 38.7886C441.982 39.5351 442.054 40.7071 442.784 41.4364L443.066 41.1536ZM443.005 39.078C443.553 38.5794 444.37 38.5039 444.88 38.968L445.15 38.672C444.45 38.0361 443.397 38.1806 442.735 38.782L443.005 39.078Z" fill="#4C5637" mask="url(#path-9-outside-5_46_57)"/>
<mask id="path-11-outside-6_46_57" maskUnits="userSpaceOnUse" x="192.006" y="55.0001" width="10.0171" height="3.05748" fill="black">
<rect fill="white" x="192.006" y="55.0001" width="10.0171" height="3.05748"/>
<path d="M201.646 56.3355C200.461 57.2587 198.977 57.8202 197.127 57.8095C195.277 57.7989 193.721 57.2199 192.546 56.2831L192.627 56.1636C193.742 57.01 195.31 57.3791 197.07 57.3892C198.83 57.3993 200.442 57.0486 201.567 56.215L201.646 56.3355Z"/>
</mask>
<path d="M201.646 56.3355C200.461 57.2587 198.977 57.8202 197.127 57.8095C195.277 57.7989 193.721 57.2199 192.546 56.2831L192.627 56.1636C193.742 57.01 195.31 57.3791 197.07 57.3892C198.83 57.3993 200.442 57.0486 201.567 56.215L201.646 56.3355Z" fill="#4C5637"/>
<path d="M201.646 56.3355L201.769 56.4933L201.915 56.3798L201.813 56.2255L201.646 56.3355ZM192.546 56.2831L192.38 56.1712L192.277 56.3243L192.421 56.4395L192.546 56.2831ZM192.627 56.1636L192.748 56.0043L192.579 55.8765L192.461 56.0517L192.627 56.1636ZM201.567 56.215L201.734 56.105L201.617 55.9285L201.448 56.0543L201.567 56.215ZM201.523 56.1777C200.373 57.0731 198.934 57.6199 197.129 57.6095L197.126 58.0095C199.021 58.0204 200.548 57.4442 201.769 56.4933L201.523 56.1777ZM197.129 57.6095C195.321 57.5991 193.808 57.034 192.671 56.1268L192.421 56.4395C193.633 57.4059 195.234 57.9986 197.126 58.0095L197.129 57.6095ZM192.712 56.395L192.793 56.2755L192.461 56.0517L192.38 56.1712L192.712 56.395ZM192.506 56.3229C193.669 57.2059 195.287 57.5789 197.069 57.5892L197.071 57.1892C195.333 57.1792 193.815 56.8142 192.748 56.0043L192.506 56.3229ZM197.069 57.5892C198.85 57.5994 200.512 57.2457 201.686 56.3757L201.448 56.0543C200.372 56.8515 198.81 57.1992 197.071 57.1892L197.069 57.5892ZM201.4 56.325L201.479 56.4455L201.813 56.2255L201.734 56.105L201.4 56.325Z" fill="#4C5637" mask="url(#path-11-outside-6_46_57)"/>
<mask id="path-13-outside-7_46_57" maskUnits="userSpaceOnUse" x="566" y="108" width="5" height="5" fill="black">
<rect fill="white" x="566" y="108" width="5" height="5"/>
<path d="M569.785 109.59C570.39 110.25 570.39 111.24 569.785 111.9L569.4 112.23C568.795 112.89 567.75 112.89 567.145 112.23L566.76 111.9C566.155 111.24 566.155 110.25 566.76 109.59L567.145 109.26C567.75 108.6 568.795 108.6 569.4 109.26L569.785 109.59Z"/>
</mask>
<path d="M569.785 109.59C570.39 110.25 570.39 111.24 569.785 111.9L569.4 112.23C568.795 112.89 567.75 112.89 567.145 112.23L566.76 111.9C566.155 111.24 566.155 110.25 566.76 109.59L567.145 109.26C567.75 108.6 568.795 108.6 569.4 109.26L569.785 109.59Z" fill="#4C5637"/>
<path d="M569.785 109.59L569.932 109.455L569.924 109.446L569.915 109.438L569.785 109.59ZM569.785 111.9L569.915 112.052L569.924 112.044L569.932 112.035L569.785 111.9ZM569.4 112.23L569.27 112.078L569.261 112.086L569.253 112.095L569.4 112.23ZM567.145 112.23L567.292 112.095L567.284 112.086L567.275 112.078L567.145 112.23ZM566.76 111.9L566.613 112.035L566.621 112.044L566.63 112.052L566.76 111.9ZM566.76 109.59L566.63 109.438L566.621 109.446L566.613 109.455L566.76 109.59ZM567.145 109.26L567.275 109.412L567.284 109.404L567.292 109.395L567.145 109.26ZM569.4 109.26L569.253 109.395L569.261 109.404L569.27 109.412L569.4 109.26ZM569.638 109.725C570.172 110.309 570.172 111.181 569.638 111.765L569.932 112.035C570.608 111.299 570.608 110.191 569.932 109.455L569.638 109.725ZM569.655 111.748L569.27 112.078L569.53 112.382L569.915 112.052L569.655 111.748ZM569.253 112.095C568.727 112.668 567.818 112.668 567.292 112.095L566.998 112.365C567.682 113.112 568.863 113.112 569.547 112.365L569.253 112.095ZM567.275 112.078L566.89 111.748L566.63 112.052L567.015 112.382L567.275 112.078ZM566.907 111.765C566.373 111.181 566.373 110.309 566.907 109.725L566.613 109.455C565.937 110.191 565.937 111.299 566.613 112.035L566.907 111.765ZM566.89 109.742L567.275 109.412L567.015 109.108L566.63 109.438L566.89 109.742ZM567.292 109.395C567.818 108.822 568.727 108.822 569.253 109.395L569.547 109.125C568.863 108.378 567.682 108.378 566.998 109.125L567.292 109.395ZM569.27 109.412L569.655 109.742L569.915 109.438L569.53 109.108L569.27 109.412Z" fill="#4C5637" mask="url(#path-13-outside-7_46_57)"/>
</svg>
